<?xml version="1.0" encoding="UTF-8"?>
<!DOCTYPE svg PUBLIC "-//W3C//DTD SVG 1.1//EN" "http://www.w3.org/Graphics/SVG/1.1/DTD/svg11.dtd">
<!-- Creator: CorelDRAW X7 -->
<svg xmlns="http://www.w3.org/2000/svg" xml:space="preserve" width="25.6316mm" height="30mm" version="1.1" style="shape-rendering:geometricPrecision; text-rendering:geometricPrecision; image-rendering:optimizeQuality; fill-rule:evenodd; clip-rule:evenodd"
viewBox="0 0 1138 1332"
 xmlns:xlink="http://www.w3.org/1999/xlink">
 <defs>
  <style type="text/css">
   <![CDATA[
    .fil0 {fill:#A3E33F}
   ]]>
  </style>
 </defs>
 <g id="Layer_x0020_1">
  <metadata id="CorelCorpID_0Corel-Layer"/>
  <path class="fil0" d="M724 191c22,0 41,18 41,41 0,23 -19,41 -41,41 -23,0 -42,-18 -42,-41 0,-23 19,-41 42,-41l0 0zm-310 0c23,0 41,18 41,41 0,23 -18,41 -41,41 -23,0 -41,-18 -41,-41 0,-23 18,-41 41,-41l0 0zm643 234l0 0c45,0 81,36 81,80l0 322c0,44 -36,80 -81,80l0 0c-44,0 -80,-36 -80,-80l0 -322c0,-44 36,-80 80,-80l0 0zm-977 0l0 0c45,0 81,36 81,80l0 322c0,44 -36,80 -81,80l0 0c-44,0 -80,-36 -80,-80l0 -322c0,-44 36,-80 80,-80l0 0zm424 648l0 178c0,45 -37,81 -81,81l0 0c-44,0 -80,-36 -80,-81l0 -178 -68 0c-35,0 -65,-30 -65,-65l0 -586 717 0 0 586c0,35 -29,65 -65,65l-67 0 0 178c0,45 -36,81 -80,81l0 0c-45,0 -81,-36 -81,-81l0 -178 -130 0zm65 -991c54,0 105,10 151,28l68 -104c4,-6 11,-8 17,-4 5,4 7,11 3,17l-65 100c108,50 182,145 184,255l-716 0c2,-110 76,-205 184,-255l-65 -100c-4,-6 -3,-13 3,-17 6,-4 13,-2 17,4l68 104c46,-18 97,-28 151,-28l0 0z"/>
 </g>
</svg>
