<?xml version="1.0" encoding="UTF-8"?>
<!DOCTYPE svg PUBLIC "-//W3C//DTD SVG 1.1//EN" "http://www.w3.org/Graphics/SVG/1.1/DTD/svg11.dtd">
<!-- Creator: CorelDRAW X7 -->
<svg xmlns="http://www.w3.org/2000/svg" xml:space="preserve" width="366px" height="366px" version="1.1" style="shape-rendering:geometricPrecision; text-rendering:geometricPrecision; image-rendering:optimizeQuality; fill-rule:evenodd; clip-rule:evenodd"
viewBox="0 0 36600 36600"
 xmlns:xlink="http://www.w3.org/1999/xlink">
 <defs>
  <style type="text/css">
   <![CDATA[
    .fil0 {fill:none}
    .fil1 {fill:#A3E33F}
   ]]>
  </style>
 </defs>
 <g id="Capa_x0020_1">
  <metadata id="CorelCorpID_0Corel-Layer"/>
  <rect class="fil0" width="36600" height="36600"/>
 </g>
 <g id="Layer_x0020_1">
  <metadata id="CorelCorpID_1Corel-Layer"/>
  <path class="fil1" d="M22147 6512c546,0 1017,447 1017,1017 0,571 -471,1018 -1017,1018 -571,0 -1043,-447 -1043,-1018 0,-570 472,-1017 1043,-1017l0 0zm-7694 0c571,0 1018,447 1018,1017 0,571 -447,1018 -1018,1018 -570,0 -1017,-447 -1017,-1018 0,-570 447,-1017 1017,-1017l0 0zm15958 5807l0 0c1116,0 2010,893 2010,1985l0 7992c0,1092 -894,1985 -2010,1985l0 0c-1092,0 -1986,-893 -1986,-1985l0 -7992c0,-1092 894,-1985 1986,-1985l0 0zm-24246 0l0 0c1116,0 2010,893 2010,1985l0 7992c0,1092 -894,1985 -2010,1985l0 0c-1092,0 -1986,-893 -1986,-1985l0 -7992c0,-1092 894,-1985 1986,-1985l0 0zm10522 16081l0 4418c0,1117 -918,2010 -2010,2010l0 0c-1092,0 -1986,-893 -1986,-2010l0 -4418 -1687 0c-869,0 -1613,-744 -1613,-1613l0 -14542 17793 0 0 14542c0,869 -719,1613 -1613,1613l-1662 0 0 4418c0,1117 -894,2010 -1986,2010l0 0c-1117,0 -2010,-893 -2010,-2010l0 -4418 -3226 0zm1613 -24593c1340,0 2606,248 3747,695l1688 -2581c99,-149 273,-199 422,-100 124,100 173,273 74,422l-1613 2482c2680,1241 4517,3599 4566,6328l-17768 0c49,-2729 1886,-5087 4566,-6328l-1613 -2482c-100,-148 -75,-322 74,-422 149,-99 323,-49 422,100l1688 2581c1141,-447 2407,-695 3747,-695l0 0 0 0z"/>
 </g>
</svg>
