<?xml version="1.0" encoding="UTF-8"?>
<!DOCTYPE svg PUBLIC "-//W3C//DTD SVG 1.1//EN" "http://www.w3.org/Graphics/SVG/1.1/DTD/svg11.dtd">
<!-- Creator: CorelDRAW X7 -->
<svg xmlns="http://www.w3.org/2000/svg" xml:space="preserve" width="295px" height="123px" version="1.1" style="shape-rendering:geometricPrecision; text-rendering:geometricPrecision; image-rendering:optimizeQuality; fill-rule:evenodd; clip-rule:evenodd"
viewBox="0 0 29500 12272"
 xmlns:xlink="http://www.w3.org/1999/xlink">
 <defs>
  <style type="text/css">
   <![CDATA[
    .fil2 {fill:none;fill-rule:nonzero}
    .fil0 {fill:#FEFEFE}
    .fil22 {fill:#417A29;fill-rule:nonzero}
    .fil40 {fill:#436F2A;fill-rule:nonzero}
    .fil34 {fill:#4C892A;fill-rule:nonzero}
    .fil10 {fill:#5FAB24;fill-rule:nonzero}
    .fil11 {fill:#63A325;fill-rule:nonzero}
    .fil41 {fill:#73AC3B;fill-rule:nonzero}
    .fil35 {fill:#7DB31F;fill-rule:nonzero}
    .fil36 {fill:#81B81E;fill-rule:nonzero}
    .fil5 {fill:#A7C622;fill-rule:nonzero}
    .fil4 {fill:#B7C70C;fill-rule:nonzero}
    .fil21 {fill:#B8CD28;fill-rule:nonzero}
    .fil25 {fill:#BFB90B;fill-rule:nonzero}
    .fil23 {fill:#C2D021;fill-rule:nonzero}
    .fil37 {fill:#C9CA40;fill-rule:nonzero}
    .fil39 {fill:#CEAE0B;fill-rule:nonzero}
    .fil30 {fill:#CED631;fill-rule:nonzero}
    .fil6 {fill:#D4C512;fill-rule:nonzero}
    .fil31 {fill:#DBDC42;fill-rule:nonzero}
    .fil38 {fill:#DCDB28;fill-rule:nonzero}
    .fil18 {fill:#E7DF34;fill-rule:nonzero}
    .fil29 {fill:#FEFEFE;fill-rule:nonzero}
    .fil9 {fill:#FEFEFE;fill-rule:nonzero;fill-opacity:0.200000}
    .fil33 {fill:#708E21;fill-opacity:0.360784}
    .fil16 {fill:#CCCCCC;fill-rule:nonzero;fill-opacity:0.380392}
    .fil28 {fill:#DDDC29;fill-rule:nonzero;fill-opacity:0.400000}
    .fil1 {fill:#FEFEFE;fill-rule:nonzero;fill-opacity:0.400000}
    .fil12 {fill:#FEFEFE;fill-rule:nonzero;fill-opacity:0.501961}
    .fil15 {fill:#5FAB24;fill-rule:nonzero;fill-opacity:0.600000}
    .fil13 {fill:#D4C512;fill-rule:nonzero;fill-opacity:0.600000}
    .fil14 {fill:#E7DF34;fill-rule:nonzero;fill-opacity:0.600000}
    .fil8 {fill:#81A51F;fill-rule:nonzero;fill-opacity:0.619608}
    .fil27 {fill:#E7DF34;fill-rule:nonzero;fill-opacity:0.619608}
    .fil26 {fill:#BFB90B;fill-rule:nonzero;fill-opacity:0.701961}
    .fil32 {fill:#708E21;fill-rule:nonzero;fill-opacity:0.901961}
    .fil20 {fill:#81A51F;fill-rule:nonzero;fill-opacity:0.901961}
    .fil7 {fill:#E7DF34;fill-rule:nonzero;fill-opacity:0.901961}
    .fil3 {fill:#8BB817;fill-rule:nonzero;fill-opacity:0.949020}
    .fil24 {fill:url(#id0);fill-rule:nonzero}
    .fil19 {fill:url(#id1);fill-rule:nonzero}
    .fil17 {fill:url(#id2);fill-rule:nonzero}
   ]]>
  </style>
  <linearGradient id="id0" gradientUnits="userSpaceOnUse" x1="16240" y1="10907.7" x2="18817.7" y2="12196.6">
   <stop offset="0" style="stop-opacity:1; stop-color:#E14A6B"/>
   <stop offset="1" style="stop-opacity:1; stop-color:#DF4989"/>
  </linearGradient>
  <linearGradient id="id1" gradientUnits="userSpaceOnUse" x1="21651.5" y1="4135.46" x2="20852" y2="3876.83">
   <stop offset="0" style="stop-opacity:1; stop-color:#D72C3E"/>
   <stop offset="1" style="stop-opacity:1; stop-color:#D9305B"/>
  </linearGradient>
  <linearGradient id="id2" gradientUnits="userSpaceOnUse" x1="19824.3" y1="2614.29" x2="20390.1" y2="3745.99">
   <stop offset="0" style="stop-opacity:1; stop-color:#973D23"/>
   <stop offset="1" style="stop-opacity:1; stop-color:#BF4420"/>
  </linearGradient>
 </defs>
 <g id="Capa_x0020_1">
  <metadata id="CorelCorpID_0Corel-Layer"/>
  <polygon class="fil0" points="24638,11434 19317,12071 19364,12237 19446,12272 26208,12272 "/>
  <polygon class="fil0" points="9499,10632 11753,9582 13688,8980 14608,12237 14608,12272 0,12272 0,8449 1534,10148 4142,9334 "/>
  <polygon id="_59961792_0" class="fil1" points="5393,7009 5074,5440 2655,7281 "/>
  <polygon id="_59961792_0_0" class="fil2" points="2655,7281 1534,10148 0,8449 484,7611 "/>
  <polygon id="_59961792_0_1" class="fil3" points="7080,8614 9499,10632 9062,7080 7281,8295 "/>
  <polygon id="_59961792_0_2" class="fil4" points="11753,9582 11552,11635 9499,10632 11434,7764 "/>
  <polygon id="_59961792_0_3" class="fil5" points="11552,11635 9499,10632 11635,10585 "/>
  <polygon id="_59961792_0_4" class="fil6" points="11552,11635 14608,12237 13771,9298 11753,9582 "/>
  <polygon id="_59961792_0_5" class="fil7" points="8295,6596 9947,6112 9062,7080 "/>
  <polygon id="_59961792_0_6" class="fil8" points="7281,8295 7528,6112 9062,7080 "/>
  <polygon id="_59961792_0_7" class="fil9" points="7281,8295 6797,7045 5393,7009 "/>
  <polygon id="_59961792_0_8" class="fil10" points="5876,10301 5393,11316 4142,9334 7281,8295 7281,8295 9499,10632 7481,11753 "/>
  <polygon id="_59961792_0_9" class="fil11" points="5593,8897 2655,7281 4142,9334 "/>
  <polygon id="_59961792_0_10" class="fil12" points="2655,7281 4873,6679 7281,8295 "/>
  <polygon id="_59961792_0_11" class="fil7" points="8295,6596 9947,6112 9062,7080 "/>
  <polygon id="_59961792_0_12" class="fil13" points="28332,11033 29500,11788 29146,10419 "/>
  <polygon id="_59961792_0_13" class="fil14" points="28332,11352 28060,10832 27895,11387 "/>
  <polygon id="_59961792_0_14" class="fil15" points="28414,11104 28178,11588 27577,10632 "/>
  <polygon id="_59961792_0_15" class="fil16" points="26043,283 26007,0 26526,201 "/>
  <polygon id="_59961792_0_16" class="fil17" points="20249,3823 20733,2537 19482,3174 "/>
  <polygon id="_59961792_0_17" class="fil18" points="19883,3941 19446,4307 20001,4307 "/>
  <polygon id="_59961792_0_18" class="fil19" points="21087,3540 21653,3623 20851,4472 "/>
  <polygon id="_59961792_0_19" class="fil20" points="14125,10703 15741,9133 14608,12237 "/>
  <polygon id="_59961792_0_20" class="fil21" points="18998,10785 15057,11068 15741,9133 17063,7894 19116,6879 19317,8980 "/>
  <polygon id="_59961792_0_21" class="fil18" points="19446,5640 21854,6396 21016,5640 "/>
  <polygon id="_59961792_0_22" class="fil22" points="18196,5027 17063,7894 15541,6160 "/>
  <polygon id="_59961792_0_23" class="fil10" points="18998,10785 16744,10950 19364,12237 "/>
  <polygon id="_59961792_0_24" class="fil23" points="23187,7694 21936,9782 24155,8779 "/>
  <polygon id="_59961792_0_25" class="fil24" points="15694,11033 17594,10868 19364,12237 "/>
  <polygon id="_59961792_0_26" class="fil6" points="22703,11670 24792,8980 24638,11434 "/>
  <polygon id="_59961792_0_27" class="fil25" points="18998,10785 19317,8980 19718,8166 21936,9782 24638,11434 19317,12071 "/>
  <polygon id="_59961792_0_28" class="fil26" points="26208,11186 24792,8980 24638,11434 "/>
  <polygon id="_59961792_0_29" class="fil27" points="23270,7729 21936,9782 21016,5640 "/>
  <polygon id="_59961792_0_30" class="fil28" points="19718,8166 21936,9782 23187,7694 "/>
  <polygon id="_59961792_0_31" class="fil26" points="25193,11352 26208,12272 26208,11186 "/>
  <polygon id="_59961792_0_32" class="fil29" points="25677,11835 25158,11352 26208,11186 "/>
  <polygon id="_59961792_0_33" class="fil30" points="26208,12272 26892,11470 26208,11434 "/>
  <polygon id="_59961792_0_34" class="fil31" points="26208,11434 26963,11104 27848,12119 "/>
  <polygon id="_59961792_0_35" class="fil32" points="14125,10703 17063,7894 13688,8980 "/>
  <polygon class="fil0" points="17511,11635 19446,12237 19446,12272 14455,12272 "/>
  <polygon class="fil33" points="17511,11635 15623,11588 15694,11033 "/>
  <polygon id="_59961792_0_36" class="fil22" points="2655,7281 1534,10148 0,8449 1971,9015 "/>
  <polygon id="_59961792_0_37" class="fil34" points="2655,7281 1534,10148 4142,9334 "/>
  <g id="_252842400">
   <polygon id="_59961792_0_38" class="fil10" points="5876,10301 5393,11316 4142,9334 "/>
   <polygon id="_59961792_0_39" class="fil35" points="5876,10301 7281,8295 9499,10632 "/>
   <polygon id="_59961792_0_40" class="fil11" points="7281,8295 4142,9334 5876,10301 "/>
   <polygon id="_59961792_0_41" class="fil36" points="5876,10301 9499,10632 7481,11753 "/>
  </g>
  <polygon id="_59961792_0_43" class="fil23" points="11434,7764 9499,10632 11753,9582 "/>
  <polygon id="_59961792_0_44" class="fil21" points="11552,11635 9499,10632 11753,9582 "/>
  <polygon id="_59961792_0_45" class="fil30" points="11552,11635 13004,10667 11753,9582 "/>
  <polygon id="_59961792_0_46" class="fil31" points="11552,11635 13004,10667 14608,12237 "/>
  <polygon id="_59961792_0_47" class="fil18" points="13771,9298 13004,10667 14608,12237 "/>
  <polygon id="_59961792_0_49" class="fil6" points="11434,7764 13771,9298 13039,6596 "/>
  <polygon id="_59961792_0_50" class="fil37" points="11552,11635 13723,11387 14608,12237 "/>
  <polygon id="_59961792_0_51" class="fil38" points="13723,11387 14125,10667 14608,12237 "/>
  <polygon id="_59961792_0_52" class="fil4" points="18998,10785 17063,7894 15741,9133 "/>
  <polygon id="_59961792_0_53" class="fil23" points="18998,10785 17063,7894 19317,8980 "/>
  <polygon id="_59961792_0_54" class="fil21" points="19116,6879 17063,7894 19317,8980 "/>
  <g id="_252838944">
   <polygon id="_59961792_0_55" class="fil39" points="21936,9782 18998,10785 19317,8980 19718,8166 "/>
   <polygon id="_59961792_0_56" class="fil25" points="19317,12071 18998,10785 21936,9782 24638,11434 "/>
  </g>
  <polygon id="_59961792_0_57" class="fil40" points="1534,10148 1971,9015 1652,8933 "/>
  <polygon id="_59961792_0_58" class="fil41" points="5593,8897 2655,7281 4142,9334 "/>
 </g>
</svg>
