<?xml version="1.0" encoding="UTF-8"?>
<!DOCTYPE svg PUBLIC "-//W3C//DTD SVG 1.1//EN" "http://www.w3.org/Graphics/SVG/1.1/DTD/svg11.dtd">
<!-- Creator: CorelDRAW X7 -->
<svg xmlns="http://www.w3.org/2000/svg" xml:space="preserve" width="35px" height="34px" version="1.1" style="shape-rendering:geometricPrecision; text-rendering:geometricPrecision; image-rendering:optimizeQuality; fill-rule:evenodd; clip-rule:evenodd"
viewBox="0 0 75 72"
 xmlns:xlink="http://www.w3.org/1999/xlink">
 <defs>
  <style type="text/css">
   <![CDATA[
    .fil0 {fill:url(#id0)}
    .fil1 {fill:url(#id1)}
    .fil2 {fill:url(#id2)}
   ]]>
  </style>
  <linearGradient id="id0" gradientUnits="userSpaceOnUse" x1="15.648" y1="62.4947" x2="60.9109" y2="8.74582">
   <stop offset="0" style="stop-opacity:1; stop-color:#00A0E3"/>
   <stop offset="1" style="stop-opacity:1; stop-color:#393185"/>
  </linearGradient>
  <linearGradient id="id1" gradientUnits="userSpaceOnUse" xlink:href="#id0" x1="8.78579" y1="36.6995" x2="65.1777" y2="36.6995">
  </linearGradient>
  <linearGradient id="id2" gradientUnits="userSpaceOnUse" x1="17.1719" y1="67.401" x2="57.7708" y2="9.88744">
   <stop offset="0" style="stop-opacity:1; stop-color:#EA7015"/>
   <stop offset="0.890196" style="stop-opacity:1; stop-color:#F2943A"/>
   <stop offset="1" style="stop-opacity:1; stop-color:#FAB95F"/>
  </linearGradient>
 </defs>
 <g id="Capa_x0020_1">
  <metadata id="CorelCorpID_0Corel-Layer"/>
  <circle class="fil0" cx="38" cy="36" r="36"/>
  <path class="fil1" d="M39 67c-1,0 -2,0 -3,0 0,0 0,0 0,0l0 0 0 0c0,0 1,0 1,0 0,0 0,0 0,0 0,0 0,0 0,0 0,0 0,0 0,0l0 0 0 0c0,0 0,0 0,0 0,0 0,0 0,0 0,0 0,0 0,0 0,0 0,0 0,0 0,0 0,0 0,0l0 0c0,0 0,0 0,0 0,0 0,0 0,0 0,0 0,0 0,0 0,0 0,0 0,0 0,0 0,-1 0,-1 0,0 1,0 1,0l0 0 0 0c0,0 0,0 0,0l0 0 0 0c0,0 0,0 0,0l0 0 0 0c0,0 0,0 0,0 0,0 0,0 0,0 0,0 0,0 0,0 0,0 0,0 0,0l0 0 0 0 0 0c0,0 0,0 0,0 0,0 0,0 0,0 0,0 0,0 0,0 0,0 0,0 0,-1 0,0 0,0 0,0 0,0 -1,0 -1,0 0,0 0,0 0,0 0,0 0,0 0,0l0 0c0,0 0,0 0,0 0,0 0,0 0,0 0,0 0,0 0,0l0 0 0 0 0 0 0 0c0,0 0,0 0,0 0,0 0,0 0,0 0,0 0,0 0,0 0,0 0,0 0,0 0,-1 0,-1 0,-1 0,0 0,0 0,0l0 0 0 0c0,0 0,0 0,0 0,0 0,0 0,0 0,0 0,0 0,0l0 0 0 0 0 0 0 0 0 0c0,0 0,0 0,0 0,0 0,0 0,0 0,0 0,0 0,0l0 -1c0,0 0,0 0,0l1 0 0 0 0 0 0 0 0 0 0 0 0 0 0 0c0,0 0,0 0,0 0,0 0,0 0,0 0,0 0,0 0,0 0,0 0,0 0,0 0,0 0,0 0,0 0,0 0,0 0,0 0,0 0,0 0,0 0,0 0,0 0,0 0,0 0,0 1,0l0 0 0 0 0 0c0,0 0,0 0,0l0 0c0,0 0,0 0,0 0,0 0,0 0,1l0 0 0 0 0 0 0 0c0,0 0,0 0,0l0 0 0 0c0,0 0,0 0,0 0,0 0,0 0,0 0,0 0,0 0,0 0,-1 0,-1 0,-1 0,0 0,0 0,0 0,0 0,0 0,0l0 0 0 0 0 0 0 0c0,0 0,0 0,0 0,0 0,0 0,0 0,0 0,0 0,0 0,0 0,0 0,0 0,0 0,0 0,0 0,0 0,0 1,0 0,0 0,0 0,0 0,0 0,0 0,0 0,0 0,0 0,0 0,0 0,0 0,0 0,0 0,0 0,0 0,0 0,0 0,0 0,0 0,0 0,0 0,0 0,0 0,0l0 0c0,0 0,0 0,0 0,0 0,0 0,0l0 0 0 0 0 0 0 0 0 0 0 0c0,0 0,0 0,0 0,0 0,0 0,0 0,0 0,0 0,0 0,0 1,0 1,0 0,0 0,0 0,0 0,0 0,0 0,0 0,0 0,0 0,0l0 0c0,0 0,0 0,0 0,0 0,0 0,0l0 0 0 0 0 0 0 0c0,0 0,0 0,0 0,0 0,0 0,0 0,0 0,0 0,0 0,0 0,0 0,0 0,0 0,0 0,0 0,0 0,0 0,0l0 0 0 0c0,0 0,0 0,0 0,0 0,0 0,0 0,0 0,0 0,0 0,0 0,0 1,0 0,0 0,0 0,0 0,0 0,0 0,0l0 0c0,0 0,0 0,0 0,0 0,0 0,0l0 0c0,0 0,0 0,0l0 0 0 0c0,0 0,0 0,0 0,0 0,0 0,0 0,0 0,0 0,0l0 0 0 0 0 0c0,0 0,0 0,0 0,0 0,0 0,0 0,0 0,1 0,1l0 0c0,0 0,0 0,0 1,0 0,0 0,0 0,0 0,0 0,0l0 0c0,0 0,0 0,0l0 0c0,0 0,0 0,0l0 0 1 0c0,0 0,1 0,1l0 0 0 0c0,0 0,0 0,0 0,0 -1,0 -1,0l0 0 0 0c0,0 0,0 0,0 0,0 0,0 0,0 0,0 0,1 0,1 0,0 0,0 0,0 0,0 0,0 0,0 0,0 0,0 0,0 0,0 1,0 1,0 0,0 -1,0 -1,0 0,0 0,0 0,0 0,0 0,0 0,0 0,0 0,1 0,1 0,0 0,0 -1,0l0 0c0,0 -1,0 -2,0zm18 -46l0 0c0,0 0,0 0,0 0,0 0,0 0,0 0,0 0,0 0,0 0,0 0,0 0,0 0,0 0,0 0,0 0,0 0,0 0,0 0,0 0,0 0,0 0,0 0,0 0,0 1,0 1,0 1,0 0,0 0,0 0,0 0,0 0,0 0,0 0,0 0,0 0,0 0,0 0,0 0,0 0,0 0,0 0,0l0 -1 0 0c0,0 0,0 0,0 0,0 0,0 0,0 0,0 0,0 0,0 0,0 0,0 0,0 0,0 0,0 0,0 0,0 0,0 0,0 0,0 0,0 0,0 0,0 0,0 0,0 0,0 0,0 0,0 0,0 0,0 0,0 1,0 1,0 1,0 0,0 0,0 0,0 0,0 0,0 0,0 0,0 0,0 0,0 0,0 0,0 0,0 0,0 0,0 0,0 0,0 0,0 0,0 0,0 0,0 0,0 0,0 0,0 0,0 -1,-1 -2,-2 -3,-3l-1 0 0 0 1 0 0 0c1,0 2,0 3,1 -2,-2 -3,-3 -4,-4l0 0 0 0 0 0 0 0c1,1 3,1 4,2 0,-1 -1,-2 -2,-3 -2,-1 -4,-3 -7,-4 0,0 0,0 0,0 0,0 0,0 1,0 0,0 0,0 0,1 0,0 0,0 0,0 0,0 0,0 0,0l0 0 0 0c0,0 0,0 0,0l0 0 0 0c0,0 0,0 0,1 0,0 0,0 0,0 0,0 0,0 0,0 0,0 0,0 0,0 0,0 0,0 1,0 -1,0 -1,0 -1,0 0,0 0,0 0,0 0,0 0,0 0,0 0,1 0,1 0,1 0,0 0,0 0,0 0,0 0,0 0,0 0,0 1,0 1,0 0,0 0,0 0,0 0,0 0,0 0,1 0,0 0,0 0,0 0,0 0,0 0,0 0,0 0,0 0,0 0,0 0,0 0,0 0,0 0,0 1,0 0,0 0,0 0,0l0 0 0 0c0,0 0,0 0,0 0,0 0,0 0,0 0,0 0,0 0,0 0,0 0,0 0,0 0,1 0,1 0,1l0 0c0,0 0,0 1,0 0,0 0,0 0,0 0,0 0,0 0,0 0,0 0,0 0,0 0,0 0,0 0,0 0,0 0,0 0,0 0,0 0,0 0,1 0,0 0,0 0,0 0,0 0,0 0,0 0,0 0,0 0,0l-1 0c0,0 0,0 0,0 0,0 0,0 0,0 0,0 0,0 0,0 0,0 0,0 0,0 0,0 0,0 0,0 0,0 0,0 0,0 0,0 0,0 0,0 0,0 0,0 0,0 0,0 0,0 0,0 0,0 0,0 0,0 0,0 0,0 0,0 0,0 0,0 0,0 0,0 0,0 0,0 0,0 0,0 0,0 -1,0 -1,0 -1,0 0,0 0,0 0,0 0,0 0,0 0,0 0,0 0,0 0,0 0,0 0,0 0,0 0,0 0,0 0,0 0,0 0,0 0,0 0,0 0,0 -1,0 0,0 0,0 0,0 0,0 0,0 0,0 0,0 0,0 0,0 0,0 0,0 0,0 0,0 0,0 0,0 0,0 0,0 0,0 0,0 0,0 0,0 0,-1 0,-1 0,-1 0,0 0,0 0,0 -1,0 -1,0 -1,0 0,0 0,0 0,0 0,0 0,0 0,0l0 0 0 0c0,-1 0,-1 0,-1 0,0 0,0 0,0 0,0 0,0 0,0 0,0 0,0 0,0 0,0 -1,0 -1,0 0,0 0,0 0,0 0,0 0,0 0,0 0,0 0,0 0,0 0,0 0,0 0,0 0,0 0,0 0,0 0,0 0,0 0,0 0,0 0,0 0,0 0,0 0,0 0,0 0,0 0,0 0,0 0,0 0,0 0,0 0,0 0,0 -1,0 0,0 0,0 0,0 0,0 0,0 0,0 0,0 0,0 0,0 0,0 0,0 0,0 0,0 0,0 0,0 0,0 0,0 0,0 0,0 0,0 0,0 0,0 0,0 0,0 0,0 0,0 0,0 0,0 0,0 0,0 0,0 0,0 0,0 0,0 0,0 0,0 0,0 0,0 0,0 0,0 0,0 0,0l0 0 0 0c0,0 0,0 0,0 0,0 0,0 0,0 0,0 0,0 0,1 0,0 0,0 0,0 0,0 0,0 0,0 0,0 0,0 1,0 0,0 0,0 0,0l0 0 0 0c0,0 -1,0 -1,0 0,0 1,0 1,1 0,0 0,0 0,0 0,0 0,0 0,0 0,0 0,0 0,0 0,0 0,0 0,0 0,0 0,0 0,0l0 0 0 0c-1,0 -1,0 -1,0 0,0 0,0 0,0 0,0 0,0 0,0 0,-1 0,-1 0,-1 0,0 0,0 0,0 0,0 0,0 0,0 0,0 0,0 0,0 0,0 0,0 0,0 0,0 0,0 0,0 0,0 0,0 0,0 0,0 0,0 0,0 -1,0 -1,0 -1,0 0,0 0,0 0,0 0,0 0,0 0,0 0,0 0,0 0,0 0,0 0,0 0,0 0,0 0,0 0,0l0 0c0,0 0,0 0,0l0 0 0 0c0,0 0,0 0,0l0 0c0,0 0,0 0,0 0,0 0,0 0,1 0,0 0,0 0,0 0,0 0,0 0,0 0,0 0,0 0,0 0,0 0,0 0,0 0,0 0,0 0,0 0,0 0,1 0,1 0,0 0,0 0,-1 0,0 0,0 0,0l0 0c0,0 0,0 0,0 0,0 -1,0 -1,0 0,0 0,0 0,1 0,0 0,0 0,0 0,0 1,0 1,0 0,0 0,0 0,0 0,0 0,0 0,0 0,0 0,0 0,0l0 0 0 0c0,0 0,0 0,0 0,1 0,1 0,1 0,0 0,0 0,0 0,0 0,0 0,0 0,0 -1,0 -1,0 0,0 0,0 0,0 0,0 0,0 0,0 0,0 0,0 0,0 0,0 0,0 0,0 0,0 0,0 0,0 0,0 0,0 0,0 0,0 0,0 0,0 0,0 0,0 0,0 0,0 0,0 0,0 0,0 0,0 0,0 0,0 0,0 0,0 0,0 0,0 0,0 0,0 -1,0 -1,0 0,0 0,0 0,0l0 0c0,0 0,0 1,0 0,0 0,1 0,1 0,0 0,0 0,0 0,0 0,0 0,0 0,0 0,0 0,0 0,0 0,0 0,0 0,0 0,0 0,0 0,0 0,0 0,0 0,0 0,0 1,0 0,0 0,0 0,0 0,0 0,0 0,0 0,0 0,0 0,0 0,0 0,0 0,0 0,0 0,0 0,0 0,0 0,0 0,0 0,0 0,0 0,0 0,0 0,0 0,0 0,0 0,0 0,0 0,0 0,0 0,0 0,0 0,0 1,0 0,0 0,0 0,0 0,0 0,0 0,0 0,0 0,0 0,0 0,0 0,0 0,0 0,0 0,0 0,0 0,0 0,0 0,0 0,0 0,0 0,0 0,0 0,0 0,0 0,0 0,0 0,0 0,0 0,0 0,0 0,0 0,0 0,0 0,0 0,0 1,0 0,0 0,0 0,0 0,0 0,0 0,0 0,1 0,1 0,1 0,0 0,0 0,0 0,0 0,0 0,0 0,0 0,0 0,0 0,0 0,0 0,0l0 0c0,0 1,0 1,0 0,0 0,0 0,0 0,0 0,0 0,0 0,0 0,-1 0,-1 0,0 0,0 0,0 0,0 0,0 0,0 0,0 0,1 1,1 0,0 0,0 0,0 0,0 0,0 0,0 0,0 0,0 0,0 0,0 0,0 0,0 0,0 0,0 0,0 0,0 0,0 0,0l1 0 0 -1c0,0 0,0 0,0 0,0 0,1 0,1 0,0 0,0 0,0 0,0 0,0 0,0 0,0 0,0 0,0 0,0 0,0 0,0 0,0 0,0 0,0 0,0 0,-1 0,-1 0,0 0,0 0,0 0,0 1,0 1,0 0,0 0,0 0,0 0,0 0,1 0,1 0,0 0,0 0,0 0,0 0,0 0,0 0,0 1,0 1,0 0,0 0,0 0,0 0,0 0,0 0,0 0,0 0,0 0,0 0,0 0,0 0,0 0,0 0,0 0,1 0,0 0,0 0,0 0,0 0,0 1,0 0,0 0,0 0,0 0,0 0,0 0,0 0,0 0,0 0,0 0,0 0,0 0,0 0,0 0,0 0,0 0,0 0,0 -1,0 0,0 0,0 0,1 0,0 1,0 1,0l0 0c0,0 0,0 0,0 0,0 0,0 0,0 0,0 0,0 0,0 0,0 0,0 0,0 0,0 0,0 0,0 0,0 0,0 0,0 0,0 0,0 1,0 0,0 0,0 0,0 0,0 0,0 0,0 0,0 0,0 0,0 0,0 0,0 1,0l0 0zm-6 -9l0 0c0,0 0,0 0,0 0,0 0,0 0,0 0,0 0,0 0,0 0,0 0,0 0,0 0,0 0,0 0,0 0,0 0,0 0,0l0 0 0 -1c0,0 0,0 0,0 0,0 0,0 0,0 0,0 0,0 0,0 0,0 0,0 0,0 0,0 -1,0 -1,0 0,0 0,0 0,0 0,0 0,0 0,0 0,0 0,0 0,0 0,0 0,0 0,0 0,0 0,0 0,0 0,0 0,0 0,0 0,0 0,0 0,0 0,0 0,0 0,0l0 0c0,0 0,1 0,1 0,0 0,0 0,0l0 0c0,0 0,0 0,0l0 0 0 0c0,0 0,0 0,0 0,0 0,0 0,0 0,0 0,0 0,0 0,0 0,0 0,0 0,0 0,0 0,0 0,0 0,0 0,0 0,0 1,0 1,0l0 0zm-29 -4l0 0c0,0 0,0 0,0l0 0c0,0 0,0 0,0 0,0 0,0 0,0 0,0 0,0 0,0l0 0 -1 0c0,0 0,0 0,0l0 0c0,0 0,0 0,0l0 0c0,0 0,0 0,0l0 0c0,0 0,0 0,0 0,0 0,0 0,0 0,0 0,0 0,0l0 0 0 0 0 0 0 0c0,0 0,0 0,0 0,0 0,0 0,0 0,0 0,0 0,0 0,0 0,0 0,0 0,0 0,0 0,0 0,0 0,0 0,0l1 0 0 0c0,0 0,0 0,0 0,0 0,0 0,0 0,0 0,0 0,0 0,0 0,0 0,0 0,0 0,0 0,0 0,0 0,0 0,0l0 0zm1 -1l0 0c0,0 0,0 0,0l0 0 0 0c0,0 0,0 0,0 0,0 0,0 0,0 0,0 0,0 0,0l0 0 0 0c0,0 0,0 0,0l0 0c0,0 0,0 0,0 0,0 0,0 0,0 0,0 0,0 0,0 0,0 0,0 0,0l0 0 0 0c0,0 0,0 0,0 0,0 1,0 1,0l0 0 0 -1c0,0 0,0 0,0 0,0 -1,0 -1,0 0,0 0,0 0,0 0,0 0,0 0,0l0 1zm26 4c0,0 0,0 0,0 0,0 -1,0 -1,0 0,0 0,0 0,0l0 0 0 0c0,0 0,0 0,0l0 0c0,0 0,0 0,0 0,0 0,0 0,0 0,0 0,0 0,0 0,0 0,0 0,0 0,0 0,0 0,0 0,0 0,0 0,0 0,0 0,0 0,0 0,0 0,0 0,0 1,0 1,0 1,0 0,0 0,0 0,0l0 0c0,0 0,0 0,0 0,0 0,0 0,0 0,0 0,0 0,0 0,0 0,0 0,0 0,0 0,0 0,0 0,0 0,0 0,0 0,0 0,0 0,0 0,0 0,0 0,0l0 0c0,0 0,0 0,0 0,0 0,0 0,0l0 0zm-27 -3c0,0 0,0 0,0l0 -1c0,0 0,0 0,0 0,0 0,0 0,0 0,0 0,0 0,0 0,0 0,0 0,0 0,0 0,0 0,0 0,0 0,0 0,0 0,0 0,0 0,0l0 0 0 0 0 0c0,0 0,1 0,1zm-5 1l-1 0 0 0 0 0 0 0c-2,1 -3,2 -5,3l0 0 0 1c-1,1 -2,1 -2,2 0,0 0,0 0,0 2,0 3,0 4,0 0,0 0,0 0,0 0,0 0,0 0,0 0,0 0,0 0,0 0,0 0,0 0,0l0 0c0,0 0,0 0,0 0,0 0,0 0,0 0,0 0,0 0,0 0,0 0,0 0,0 0,0 0,0 0,0 0,0 0,0 0,0 0,0 0,0 0,0 0,0 0,0 -1,0 0,0 0,0 0,0 0,-1 0,-1 0,-1l0 0c0,0 0,0 0,0 0,0 0,0 0,0 0,0 0,0 0,0 0,0 0,1 0,1 0,0 0,-1 0,-1 0,0 0,0 0,0 0,0 0,0 0,0 0,0 0,0 0,0l0 0 0 0 0 0c0,0 0,0 0,0l0 0 0 0 0 0 1 -1c0,0 0,0 0,0l0 0c0,0 0,0 0,0 0,0 0,0 0,0 0,0 0,0 0,0 0,0 0,0 0,0 0,0 0,0 0,0 0,0 0,0 0,0 0,0 0,0 0,0 0,0 0,0 0,0l0 0 0 0c0,0 0,0 0,0 0,0 0,0 0,0 0,0 0,0 0,0l1 0 0 0c0,0 0,0 0,0l0 0 -1 0c0,0 0,0 0,0 0,0 0,0 0,0 0,0 0,0 0,0l0 0c0,0 0,0 0,0 0,0 0,0 0,0 0,0 0,0 0,0 0,0 0,0 0,0 0,0 0,0 0,0 0,0 0,0 0,0 0,0 0,0 0,0l0 -1 0 0 0 0 0 0c0,0 0,0 0,0 0,0 0,0 0,0 0,0 0,0 0,0 0,0 0,0 0,0 0,0 0,0 0,0 1,0 1,0 1,0 0,0 0,0 0,0 0,0 0,0 0,0l0 0 0 0 0 0c0,0 0,0 0,0 0,0 0,0 0,0 0,0 0,0 0,0 0,0 1,0 1,0 0,0 0,0 0,0 0,0 0,0 0,0 0,0 0,0 0,0 0,0 0,0 0,0 0,0 0,0 0,-1 0,0 0,0 0,0 0,0 0,0 0,0 0,0 1,0 1,0l0 0 0 0c0,0 0,0 0,0 0,0 0,0 0,0l0 0c0,0 0,0 0,0 0,0 0,0 0,0 0,0 0,0 0,0 0,0 0,0 0,0 0,0 0,1 0,1 0,0 0,0 0,0 0,0 0,0 0,0 0,0 0,0 0,0 0,0 0,0 0,-1 0,0 0,0 0,0l0 0c0,0 0,0 0,0 0,0 0,0 1,0l0 0 0 0c0,0 0,0 0,0 0,0 0,0 0,0 0,0 0,0 0,0 0,0 0,0 0,0 0,0 1,0 1,0 0,0 0,0 0,0 0,0 0,0 0,0 0,0 0,0 0,0 0,0 0,0 0,0 0,0 0,0 0,0 0,0 0,0 0,0 0,0 0,0 0,0 0,-1 0,-1 0,-1 0,0 0,0 0,0 0,0 0,0 0,0 0,0 0,0 0,0l0 0c1,0 1,0 1,0 0,0 0,0 0,0l0 -1c0,0 0,0 0,0l0 0c0,0 0,0 0,0 -1,0 -1,0 -1,0 0,0 0,0 0,0 0,0 0,0 0,0 0,0 0,0 0,0l0 0c0,0 0,0 0,0 0,0 0,0 0,0 0,0 0,0 0,0 0,0 0,0 0,0l0 0 0 0c0,0 0,0 0,0l0 0 0 0c0,0 0,0 0,0 0,0 0,0 0,0l0 0 0 0 0 0 0 0c0,0 0,0 0,0l0 -1c0,0 0,0 0,0 0,0 0,0 0,0 0,0 0,0 0,0 0,0 0,0 0,0l0 0c0,0 0,0 0,0l0 0 0 0c0,0 0,0 0,0 -1,0 -1,0 -1,0 0,0 0,0 0,0 0,1 0,1 0,1 0,0 0,0 0,0l0 0 0 0 0 0 0 0c0,0 0,0 0,0l0 0 0 0c0,0 0,0 0,0 0,0 0,0 0,0zm3 0l0 0c0,0 0,0 0,0l0 0 0 0 0 0 0 0 0 0c0,0 0,0 0,0 0,0 0,0 0,0 0,0 0,0 -1,0 0,0 0,0 0,0 0,0 0,0 0,0 0,0 0,0 0,0 0,0 0,0 0,0 0,0 0,0 0,1l0 0 0 0c0,0 0,0 0,0 0,0 0,0 0,0 0,0 0,0 0,0l0 0c0,0 0,0 0,0 0,0 0,0 0,0 0,0 0,0 0,0 0,0 0,0 0,0 0,0 0,0 0,0 0,0 0,0 0,1l0 -1c0,1 0,1 0,1 0,0 0,0 0,0 0,0 0,0 0,0 0,0 0,0 0,-1 1,0 1,0 1,0 0,0 0,0 0,0 0,0 0,0 0,0 0,0 0,0 0,0l0 0 0 0c0,0 0,0 0,0 0,0 0,0 0,0 0,0 0,0 0,0 0,0 0,0 0,-1 0,0 0,0 0,0 0,0 0,0 0,0 0,0 0,0 0,0 0,0 0,0 0,0 0,0 0,0 0,0l0 0zm1 0l0 0 0 0 0 0c0,0 0,0 0,0 0,0 0,0 0,0 0,0 0,0 0,0l0 0c0,0 0,0 0,0 0,0 0,0 0,0 0,0 0,0 0,0 0,0 0,0 0,0l0 0c0,0 0,0 0,0 0,0 0,0 0,-1 0,0 0,0 0,0 0,0 0,0 -1,1 0,0 0,0 0,0 0,0 0,0 1,0l0 0 0 0 0 0 0 0 0 0c0,0 0,0 0,0l0 0zm23 35l0 0c0,0 0,0 0,0 0,0 0,0 0,0 0,0 0,0 0,0 0,0 0,0 0,0 0,0 0,0 0,-1 0,0 0,0 0,0 0,0 0,0 0,0l0 0 0 0 0 0 0 0 0 0 0 0 0 0c0,0 0,0 0,0 0,0 0,0 0,0 0,0 0,0 0,0 0,0 0,0 0,1 0,0 0,0 0,0 0,0 -1,0 -1,0 0,0 0,0 0,0 0,0 0,0 0,0 0,0 0,0 0,0 0,0 0,0 0,0 0,0 0,0 0,0 0,0 0,0 0,0 0,0 0,0 0,0 0,0 0,0 -1,0 0,0 0,0 0,0 0,0 0,0 0,0 0,0 0,0 0,0 0,0 0,0 0,0 0,0 0,0 0,0 0,0 0,0 0,0 0,0 0,0 0,0 0,0 -1,0 -1,0 0,0 0,0 0,1 0,0 0,0 0,0l0 0c0,0 0,0 0,0l0 0c0,0 0,0 0,0 0,0 0,0 0,0 0,0 0,0 0,0 0,0 0,1 0,1 0,0 0,0 0,0 0,0 0,0 0,0 0,0 0,0 0,0 0,0 1,0 1,0 0,0 0,0 0,0 0,0 0,0 0,0 0,0 0,0 0,0 0,0 0,0 0,0 0,0 0,0 0,0 0,0 0,0 0,0 0,0 0,0 0,0 0,0 0,0 0,0 0,0 1,-1 1,-1 0,0 0,0 0,0 0,0 0,0 0,0 0,0 0,-1 0,-1l1 0zm15 -7c0,0 0,0 -1,0 0,0 0,0 0,0 0,0 0,0 0,0 0,0 0,0 0,0 0,0 0,0 0,0 0,0 0,0 0,0 0,-1 0,-1 0,-1 0,0 0,0 0,0 1,0 1,0 1,-1 0,0 0,0 0,0 0,0 0,0 0,0 0,0 0,0 0,0 -1,0 -1,0 -1,0 0,0 0,0 0,0 0,0 0,0 0,0 0,-1 0,-1 0,-1 0,0 0,0 0,0 0,0 0,0 0,0 0,0 0,0 0,0 0,0 0,0 0,0 0,0 -1,0 -1,0 0,0 0,0 0,0 0,0 0,0 0,0 0,0 0,0 0,0 0,0 0,0 0,0 0,0 0,0 0,0 0,0 0,0 0,0 0,0 0,0 0,0 0,0 0,0 0,0 0,0 0,0 0,0 0,0 0,0 0,0 0,0 0,0 0,0 0,0 0,0 0,0 -1,0 -1,0 -1,0 0,0 0,0 0,0 0,0 0,0 0,0 0,0 0,0 0,0 0,0 0,0 0,0 0,0 0,0 0,0 0,0 0,0 -1,0l0 -1 0 0c0,0 0,0 0,0 0,0 0,0 0,0 0,0 0,0 0,0 0,0 0,0 0,0 0,-1 0,-1 -1,-1 0,0 0,0 0,0 0,0 0,0 0,0 0,0 0,0 0,0 -1,0 -1,-1 -1,-1 0,0 0,0 0,0 0,0 0,0 0,0 0,0 0,0 0,0 0,0 0,0 0,0 0,0 0,-1 0,-1 0,0 0,0 0,0 0,0 0,0 -1,0 0,0 0,0 0,0 0,0 0,0 0,0l0 -1 0 0c0,0 0,0 0,0 0,0 -1,0 -1,0 0,0 0,0 0,0 0,0 0,0 0,0 0,0 0,0 0,0 0,0 -1,0 -1,0 0,0 0,0 0,0 0,0 0,0 0,0 0,0 0,0 0,0 0,0 0,0 0,0 0,0 0,0 0,0 0,0 0,0 0,0 0,-1 0,-1 0,-1 0,0 0,0 0,0l0 0 0 0c0,0 0,0 0,0 0,-1 0,-1 0,-1 0,0 0,0 0,0 0,0 0,0 0,0 0,0 0,0 0,0 0,0 0,0 0,0 0,0 0,0 -1,0l0 0c0,0 0,0 0,0 0,0 0,0 0,0 -1,0 -1,0 -1,0 0,0 0,0 0,0 0,0 0,0 0,0 0,0 0,0 0,0 0,0 0,0 0,0 0,0 0,0 0,0 0,0 0,0 0,0 0,0 0,0 0,0l0 0c0,0 0,0 0,0 -1,0 -1,0 -1,0 0,0 0,0 0,0 0,0 0,0 0,0 0,0 0,0 0,0 0,0 0,0 0,0 0,0 0,0 0,0 0,0 0,0 0,0 0,0 0,0 0,0 0,0 0,0 0,0 0,0 0,0 0,0 0,0 0,0 0,0 0,0 0,0 0,0 0,-1 0,-1 0,-1 0,0 0,0 0,0 0,0 0,0 -1,0 0,0 0,0 0,0 0,0 0,0 0,0 0,0 0,0 0,0 0,0 0,0 0,0 0,0 0,0 0,0 -1,0 -1,0 -1,0 0,0 0,0 0,0 0,1 0,1 0,1 0,0 -1,0 -1,0 0,0 0,0 0,0 0,0 0,0 0,0 0,0 0,0 0,1 0,0 0,0 0,0 0,0 0,0 0,0 0,0 0,0 0,1 0,0 0,0 0,0 0,0 0,0 0,0 0,0 0,0 0,0 0,0 0,0 0,0 0,0 0,0 0,0 0,0 0,-1 0,-1 0,0 -1,0 -1,0 0,0 0,0 0,0 0,0 0,0 0,0 0,0 0,0 0,0 0,0 0,0 0,0 0,0 0,0 0,0 0,0 0,0 0,0 0,0 0,0 0,0 0,0 0,1 0,1 0,0 -1,0 -1,0 0,0 0,0 0,0 0,0 0,0 0,0 0,0 0,0 0,0 0,0 0,0 0,0 0,1 0,1 0,1 0,0 0,0 0,0l0 0c0,0 0,0 0,0 0,0 0,0 0,0 0,0 0,0 0,0 0,0 0,0 0,0 0,0 0,0 0,0 0,0 0,0 0,0 0,0 0,1 0,1 0,0 0,0 0,0 -1,0 -1,0 -1,0 0,0 0,0 0,0 0,0 0,0 0,1 0,0 1,0 1,0 0,0 -1,0 -1,0 0,0 1,0 1,0l0 0c0,0 0,0 0,1 0,0 0,0 0,0 0,0 0,0 0,0 0,0 0,0 0,0 0,0 0,0 0,0 1,0 1,0 1,0 0,0 0,0 0,0 0,0 0,0 0,0 0,0 0,0 1,0 0,0 0,0 0,0 0,0 0,0 0,0 0,0 0,0 0,0l0 0 0 0c0,0 1,0 1,0 0,0 0,1 0,1 0,0 0,0 0,0 0,0 0,0 0,0 0,0 0,0 0,0 0,0 1,0 1,0 0,1 0,1 0,1 0,0 0,0 0,0 1,0 1,0 1,0 0,1 0,1 0,1 0,0 1,0 1,0 0,0 0,1 0,1 0,0 0,0 0,0 -1,0 -1,0 0,0 0,0 0,0 0,0 0,0 0,0 0,0 -1,0 -1,0 -1,0 0,0 0,0 0,0 0,0 0,0 0,0 0,0 0,0 0,0 0,0 0,0 0,0 0,0 0,0 0,0 0,0 0,0 0,1 0,0 0,0 0,0l0 0 0 0c0,0 0,0 0,0 0,0 0,0 0,0 0,0 0,0 0,0 0,0 0,1 0,1 0,0 0,0 0,0 0,0 0,0 0,0 0,0 0,0 0,0 0,0 0,0 0,0 0,0 -1,0 -1,0 0,0 0,0 0,0 0,0 0,0 0,0 0,0 0,0 0,0 0,0 0,0 0,0 0,0 0,0 0,0 0,0 0,0 0,0 0,0 0,0 0,0 0,0 0,0 0,0 0,0 0,0 0,0 0,0 0,0 0,0 0,0 0,0 -1,0 0,0 0,0 0,0 0,0 0,0 0,0 0,0 0,0 0,0 0,-1 0,-1 0,-1l0 0 0 0c0,0 0,0 0,0 0,0 0,0 0,0 0,0 0,-1 0,-1 0,0 0,0 0,0 0,0 0,0 0,0 0,0 0,0 0,0 0,0 0,0 0,0 0,0 0,0 0,0 -1,0 -1,0 -1,-1 0,0 0,0 0,0 0,0 0,0 0,0 0,0 0,0 0,0 0,0 0,0 0,0 -1,0 -1,0 -1,0 0,0 0,0 0,0 0,0 0,0 0,0 0,0 0,0 0,0 0,0 0,0 0,0 0,0 0,0 0,0 0,0 0,0 0,0 0,0 0,0 0,0 0,0 0,0 0,0 0,0 0,0 0,0 0,0 0,0 0,0 0,0 0,0 0,0 0,0 0,0 0,0 0,0 0,0 0,1 -1,0 -1,0 -1,0 0,0 0,0 0,0 0,-1 0,-1 0,-1 0,0 0,0 0,0 0,0 0,1 0,1 0,0 0,0 0,0 0,0 0,0 0,0 0,0 0,0 0,0 -1,0 -1,0 -1,0 0,0 0,0 0,0 0,0 0,0 0,0 0,0 0,0 0,0 0,0 0,0 0,0 0,0 0,0 0,0 0,0 0,0 0,0 -1,0 -1,0 -1,0 0,0 0,0 0,0 0,0 0,0 0,0l0 0 -1 0 0 0c0,0 0,0 0,0 0,0 0,1 0,1 0,0 0,0 0,0 0,0 0,0 0,0 0,0 0,0 0,0 0,0 0,0 0,0 0,0 0,0 0,0 0,0 0,0 0,0 0,0 0,1 0,1 0,0 0,0 0,0 0,0 0,0 0,0 0,0 1,0 1,0 0,0 0,0 0,0 0,0 0,0 0,0 0,1 0,0 0,1 0,0 0,0 0,0l0 0 0 0 0 0c0,0 0,0 0,0 0,0 0,0 0,0 0,0 0,0 0,0 0,0 0,0 0,0 0,0 0,0 0,0 0,0 0,0 0,1 0,0 0,0 0,0 0,0 0,0 0,0 0,0 0,0 0,0 0,1 0,1 0,1 0,0 0,0 0,0 0,0 0,0 0,0 0,0 0,1 0,1 0,0 0,0 0,0 0,0 0,0 0,0 0,0 0,0 0,0 0,0 0,0 0,0 0,0 0,0 0,1 0,0 0,0 0,0 1,0 1,0 1,0 0,0 0,0 0,0 0,0 0,0 0,0 0,0 0,0 0,0 0,0 0,0 0,0 0,0 0,0 0,0 0,0 0,0 0,0 0,0 0,0 0,0l0 0c0,0 0,0 0,0 0,0 1,0 1,0 0,0 0,0 0,0 0,0 0,0 0,0 0,0 0,0 0,0 0,0 0,0 0,0 1,0 1,0 1,-1 0,0 0,0 0,0 0,0 0,0 0,0 0,0 0,0 1,0 0,0 0,0 0,0 0,0 0,0 0,0 0,0 0,0 0,0 1,0 1,0 1,-1 0,0 0,0 0,0 0,0 0,0 0,0 0,0 0,0 0,0 0,-1 0,-1 1,-1 0,0 0,0 0,0 0,0 0,0 0,1 0,0 0,0 0,0 0,0 0,0 -1,0 0,0 0,0 0,0l0 0c0,0 0,0 0,0 0,0 0,0 0,0 0,0 0,0 0,1 0,0 0,0 0,0 0,0 0,0 0,0 0,0 0,0 0,0 0,0 0,0 0,0l0 0c0,0 0,1 0,1l0 0 0 0c0,0 0,0 0,0l0 0c0,0 0,0 0,0 0,1 0,1 0,1 0,0 0,0 0,0 0,0 0,0 0,0 0,0 0,0 0,0 0,0 0,0 0,1 0,0 0,0 0,0 0,0 0,0 0,0 0,0 0,0 0,0 0,0 0,0 0,0 0,0 0,0 0,0 0,1 0,1 0,1 0,0 0,0 0,0 0,0 0,0 0,0 0,0 0,0 0,0 0,0 0,0 0,0 0,0 0,0 0,0 1,0 1,1 1,1 0,0 0,0 0,0 0,0 0,0 0,0 0,0 0,0 0,1 0,0 0,0 0,0 0,0 0,0 0,0 0,0 0,0 0,0 0,1 0,1 0,1 0,0 0,0 0,0 0,0 0,0 0,0 0,0 0,0 0,0 1,0 1,0 1,0 0,1 0,1 0,1 0,0 0,0 1,0 0,0 0,0 0,0 0,0 0,0 0,0 0,0 0,0 0,0 0,0 0,0 0,0 1,0 1,0 1,1l0 0 0 0c0,0 0,0 0,0 0,0 0,0 0,0 0,0 1,0 1,0 0,0 0,0 0,0 0,0 0,0 0,0 0,0 0,1 0,1 0,0 0,0 0,0 0,0 0,0 0,-1 0,0 0,0 0,0 0,0 0,1 0,1 0,0 0,0 0,0 0,0 0,-1 1,-1 0,0 0,0 0,0 0,0 0,0 0,0 0,0 0,0 0,0 0,0 0,0 0,0 0,0 0,-1 0,-1 0,0 0,0 0,0 0,0 0,0 0,0l0 0 0 0c0,0 0,0 0,0 0,-1 0,-1 0,-1 0,0 0,0 0,0 0,0 0,0 0,0 1,0 1,0 1,0 0,0 0,0 0,0 0,0 0,0 0,0 0,0 0,0 0,0l0 0 0 0 0 1 0 0c0,0 0,0 0,0 0,0 0,0 0,1 0,0 0,0 0,0 0,0 0,0 0,1 0,0 0,0 0,0 0,0 0,0 0,0 0,0 0,0 0,0 0,0 0,0 0,0 0,1 0,1 0,1 0,0 0,0 0,0 0,0 0,0 0,1 0,0 0,0 0,0 0,0 0,0 0,0 0,0 0,0 0,0 0,0 0,0 0,0 0,1 0,1 0,1 0,0 0,0 0,0 0,0 0,0 0,0 0,0 0,0 0,0l0 0c0,0 0,0 0,0 0,1 0,1 0,1 0,0 0,0 0,0 0,0 1,0 1,0 0,0 0,0 0,0l0 0c0,0 0,1 0,1l0 0 0 0c0,0 0,0 0,0 0,0 -1,0 -1,0 0,0 0,0 0,0l0 0c0,0 0,0 0,0 0,0 0,0 0,0 0,0 0,0 0,0 0,0 0,1 0,1 0,0 0,0 0,0 0,0 0,0 0,0 0,0 0,0 0,0 0,0 0,0 0,0 0,0 0,1 0,1 0,0 0,0 -1,0 0,0 0,0 0,0 0,0 0,0 0,0 0,0 0,0 0,0l0 0c0,0 0,0 0,0 0,0 0,0 0,0 0,0 0,0 0,0 0,0 -1,0 -1,0 0,0 0,0 0,0 0,0 0,0 0,0 0,0 0,0 0,0 0,0 0,0 0,0 0,0 0,0 0,0 0,0 0,0 0,0 0,0 0,0 0,0 0,0 0,0 0,0 0,0 0,1 0,1l0 0c0,0 0,0 0,0 0,0 0,0 0,0l0 0c0,0 0,0 0,0 0,0 0,0 0,0 0,0 0,0 0,0 0,1 0,1 0,1 0,0 0,0 0,0 0,0 0,0 0,0 0,0 0,0 0,0 0,0 0,0 0,0 0,0 0,1 -1,1 0,0 0,0 0,0 0,0 0,0 0,0 1,-1 2,-1 2,-1 0,0 0,0 0,0 0,0 0,0 0,0 1,0 1,0 1,1 0,0 0,0 0,1 0,0 0,0 0,0 0,0 0,0 0,0 0,0 0,0 0,0 0,0 0,0 0,0 0,0 0,0 0,0 0,0 0,0 1,0 0,0 0,0 0,0 0,0 0,0 0,0 0,0 0,0 0,0 0,0 0,0 0,0 0,0 0,0 0,0 0,0 0,0 0,0 0,0 0,0 0,0 1,-1 1,-1 1,-1 1,-1 2,-2 3,-5 0,-2 1,-3 1,-5 1,-2 1,-4 1,-4l0 0 0 0c0,0 1,1 1,3 1,-1 1,-3 1,-5l1 -1c0,-2 -1,-4 -1,-7 0,0 0,0 0,0 0,0 0,0 0,0 0,0 0,0 0,0 0,0 0,0 0,0 0,0 0,0 0,0 0,0 0,0 0,0 0,0 0,0 0,0 0,0 0,0 0,0l0 0c-1,0 -1,0 -1,0l0 1 0 0c0,0 0,0 0,0 0,0 0,0 0,0 0,0 -1,0 -1,0 0,0 0,0 0,0 0,0 0,0 0,0 0,0 0,0 0,0 0,0 0,0 0,0 0,0 0,0 0,0 0,0 0,0 0,0 0,0 0,0 0,-1 0,0 0,0 0,0 0,0 0,0 0,0 0,0 0,0 0,0 0,0 0,0 -1,-1 0,0 0,0 0,0 0,0 0,0 0,0l0 0c0,0 0,0 0,0 0,0 0,0 0,0 0,0 1,0 1,0 0,0 0,0 0,0 0,0 0,-1 0,-1l0 0zm6 -3c-1,-1 -1,-3 -1,-4l-1 -1c0,0 0,0 0,0 0,0 0,0 0,0 0,0 0,0 0,0l0 1 0 0c0,0 0,0 0,0 0,0 0,0 0,0 0,0 0,0 0,0 0,0 0,0 -1,0 0,0 0,0 0,0 0,0 0,0 0,1 0,0 0,0 0,0 0,0 0,0 0,0 0,0 0,0 0,0 0,0 0,0 0,0 0,0 0,0 0,0 0,0 0,0 0,0 0,0 0,0 0,0 0,0 0,1 0,1 0,0 0,0 0,0 0,0 0,0 0,0 0,0 0,0 0,0 0,0 0,0 0,0 -1,0 -1,1 -1,1 0,0 0,0 0,0 0,0 0,0 0,0 0,0 0,0 0,0 1,0 1,0 1,0 0,0 0,0 0,0 0,0 0,0 0,0l0 0 0 0c0,1 0,1 0,1 0,0 0,0 0,0 0,0 0,0 0,0l0 0 1 1c0,0 0,0 0,0 0,0 0,0 0,0 0,0 0,0 0,0 0,0 0,0 0,0 1,2 2,3 2,4 0,-2 0,-3 0,-5zm-26 3l0 0 0 0zm0 0l0 0 0 0 0 0zm-20 -26l0 0 0 0 0 0zm22 22l0 0c-1,0 -1,0 -1,0 0,0 0,0 0,0 0,-1 0,-1 0,-1 0,0 0,0 0,0 0,0 0,0 0,0 0,0 0,0 0,0 0,0 0,0 0,-1 0,0 0,0 0,0 0,0 0,0 0,0l0 0 0 0c0,0 0,0 0,0 0,0 0,0 0,0 0,0 0,0 0,0 0,0 0,0 0,0 0,0 0,0 0,0l0 0c0,0 1,0 1,0 0,0 0,0 0,0l0 0c0,0 0,1 0,1 0,0 0,0 0,0 0,0 0,0 0,0 0,0 0,0 0,0 0,0 0,0 0,0 0,0 0,0 0,0 0,0 0,0 0,0 0,0 0,0 0,0 0,0 0,0 0,0 0,1 0,1 0,1l0 0 0 0c0,0 0,0 0,0 0,0 0,0 0,0 0,0 0,0 0,0l0 0zm-2 -1c0,0 0,0 0,0 0,0 0,0 0,0 0,0 0,0 0,0l0 0 0 0c0,0 0,0 0,0 0,0 0,0 0,0 0,0 0,0 0,0 0,0 0,0 0,0 0,-1 0,-1 0,-1 0,0 0,0 0,0 0,0 0,0 0,0 0,0 0,0 0,0 0,0 0,0 0,0 0,0 0,0 0,0 0,0 0,1 0,1 0,0 0,0 0,0 0,0 0,0 0,0 0,0 0,0 0,0 0,0 0,0 0,0zm1 -1l0 0 0 0 0 0c0,0 0,0 0,0l0 0 0 0 0 0c0,0 0,0 0,-1 0,0 0,0 0,0 0,0 0,0 0,0l0 0c0,0 0,0 0,0 0,0 0,0 0,0 0,0 0,0 0,0 0,0 0,0 1,0 0,0 0,0 0,0 0,0 0,1 0,1 0,0 0,0 -1,0l0 0 0 0c0,0 0,0 0,0 0,0 0,0 0,0l0 0c0,0 0,0 0,0zm1 -2c0,0 0,0 0,0l0 0c0,0 0,0 0,0l0 0 0 0 0 0c0,0 0,0 0,0 0,0 0,0 0,0 0,0 0,0 0,0 0,0 0,0 0,0 0,0 0,0 0,0 0,0 0,0 0,0 0,0 0,0 0,0 0,0 0,0 0,0 0,0 0,0 0,0 0,0 0,0 0,0 0,0 0,0 0,0l0 0 0 0c0,0 0,0 0,0 0,0 0,0 0,0 0,0 0,0 0,0 0,0 0,0 0,0 0,0 0,0 0,0zm-5 38c0,0 0,0 -1,0 0,0 0,0 0,0 0,0 0,0 0,0 0,0 0,0 0,0 1,-1 1,-1 1,-1 0,0 0,0 0,0l0 0c0,0 0,0 0,0 0,0 0,0 0,0l0 0 0 0c0,0 0,0 0,0 0,0 0,0 0,0 0,0 0,0 0,0 0,0 0,0 0,0 0,0 0,0 0,0 0,0 0,0 0,0l0 0 0 0 0 0 0 1 0 0c0,0 0,0 0,0l0 0c0,0 0,0 0,0l0 0 0 0 0 0 0 0 0 0c0,0 0,0 0,0z"/>
  <g id="_385390760">
   <path class="fil2" d="M75 28c0,1 0,3 0,5 0,3 -1,6 -1,8 -1,3 -2,6 -3,9 -1,3 -3,6 -5,9 -2,2 -4,5 -8,7 -3,2 -7,4 -11,5 -2,0 -4,1 -7,1 0,0 0,0 0,0 -2,0 -4,0 -6,0 -12,-1 -22,-7 -28,-18 -3,-5 -4,-10 -5,-15 0,2 0,3 0,4 -1,-6 0,-10 1,-14 -1,2 -2,3 -2,4 1,-4 2,-8 3,-10 0,-1 1,-2 2,-3 0,-1 0,-1 0,-1 0,-3 0,-5 1,-7 0,-2 1,-4 1,-4 1,-1 1,-1 2,-2 0,3 1,5 3,7 1,0 1,0 2,0 2,0 5,0 8,0 1,-1 3,-3 7,-3l2 -1c-2,2 -4,4 -5,8 1,2 3,3 5,3 1,0 2,0 3,0 1,0 2,0 2,0l0 1 0 0c1,0 1,0 0,0l0 0 0 0c0,1 0,2 -1,3 0,0 0,0 0,0 0,0 0,0 0,0 0,0 0,0 -1,1 -1,0 -2,1 -3,2 -1,0 -2,1 -2,1l0 0 0 0c0,1 0,2 1,2 0,1 0,2 0,2 0,1 0,1 0,1 -1,0 -3,-1 -4,-1 -1,1 -2,1 -2,2 0,1 0,1 0,1 0,2 1,4 4,5 1,1 2,2 3,2 1,0 2,0 3,-1 0,0 1,0 2,0 1,-1 2,-1 2,-1 3,-1 5,0 7,2 1,1 1,1 0,2 0,0 0,0 -1,0 0,0 -1,0 -1,0 0,0 0,0 0,0 -1,0 -1,1 -1,1 0,0 0,0 -1,0 0,0 0,0 -1,1 0,0 0,0 -1,0 0,1 0,1 -1,1 -1,1 -3,1 -5,2 -2,0 -4,0 -5,0 1,1 2,1 3,2 0,0 1,1 3,2 2,0 3,1 4,1 1,0 3,1 4,1 2,0 4,-1 5,-1 1,-1 3,-2 4,-3 2,-2 4,-4 5,-6 0,0 1,-1 1,-1 0,0 0,2 -1,4 0,2 0,2 0,2 1,-1 2,-3 3,-6 1,-4 1,-7 0,-10 1,0 2,1 3,3l0 0c1,-2 1,-4 1,-7 0,-3 0,-6 -1,-8 1,1 3,2 4,4 -1,-1 -1,-3 -2,-4 0,-1 -1,-3 -2,-3 0,-1 -1,-2 -2,-3 -1,-1 -2,-2 -2,-2 -1,-1 -2,-1 -3,-2 -1,0 -2,0 -2,-1 -1,0 -2,0 -2,0 -1,0 -1,0 -2,-1 0,0 0,0 0,0 2,0 5,-1 8,-1 -1,0 -1,-1 -2,-1 -1,0 -2,-1 -3,-1 -1,0 -2,0 -3,-1 -1,0 -2,0 -3,0l0 0 0 0c3,-1 7,-1 13,1 2,1 4,2 6,4 2,2 3,3 3,4 1,1 1,2 1,2l0 0c0,-1 0,-2 0,-3 0,-1 -1,-2 -1,-3 0,0 0,0 0,0 0,1 1,1 1,2 1,1 1,2 2,4 1,3 2,7 3,14l1 -5c0,0 0,1 0,2z"/>
  </g>
 </g>
</svg>
