<?xml version="1.0" encoding="UTF-8"?>
<!DOCTYPE svg PUBLIC "-//W3C//DTD SVG 1.1//EN" "http://www.w3.org/Graphics/SVG/1.1/DTD/svg11.dtd">
<!-- Creator: CorelDRAW X7 -->
<svg xmlns="http://www.w3.org/2000/svg" xml:space="preserve" width="35px" height="34px" version="1.1" style="shape-rendering:geometricPrecision; text-rendering:geometricPrecision; image-rendering:optimizeQuality; fill-rule:evenodd; clip-rule:evenodd"
viewBox="0 0 3500 3331"
 xmlns:xlink="http://www.w3.org/1999/xlink">
 <defs>
  <style type="text/css">
   <![CDATA[
    .fil0 {fill:#1C1B17}
    .fil2 {fill:#B0CB1F}
    .fil3 {fill:#E31E24}
    .fil1 {fill:#FEFEFE}
    .fil4 {fill:#2B2A29;fill-rule:nonzero}
    .fil5 {fill:#FEFEFE;fill-rule:nonzero}
   ]]>
  </style>
 </defs>
 <g id="Capa_x0020_1">
  <metadata id="CorelCorpID_0Corel-Layer"/>
  <polygon class="fil0" points="1452,107 3233,1879 1781,3331 0,1550 "/>
  <path class="fil1" d="M2467 1354c294,294 365,730 196,1095l160 45c178,-419 98,-918 -240,-1256 -446,-445 -1167,-445 -1612,0 -357,356 -428,899 -196,1327l116 -116c-161,-365 -98,-801 196,-1095 382,-383 997,-383 1380,0l0 0zm-454 917l0 0 0 0zm0 0l0 0 0 0zm0 0l0 0 0 0zm0 0l0 0 0 0zm0 0l0 0 0 0zm222 -695c214,214 250,535 107,784l161 45c151,-303 106,-686 -152,-936 -312,-320 -828,-320 -1149,0 -231,232 -294,562 -187,855l134 -133c-54,-214 9,-445 169,-615 258,-249 668,-249 917,0l0 0zm-222 241c0,0 0,0 0,0 9,0 9,0 9,9 0,0 0,0 0,0 0,0 0,0 0,0 9,0 9,0 9,9 0,0 0,0 0,0 0,0 0,0 0,0 0,0 0,9 8,9 0,0 0,0 0,0 0,0 0,0 0,0 0,9 0,9 0,9 0,0 9,0 9,0 0,0 0,0 0,0 0,8 0,8 0,8 0,0 0,0 0,0 0,0 9,9 9,9 0,0 0,0 0,0 0,0 0,0 0,0 0,9 0,9 0,9 0,0 0,0 9,0 0,0 0,0 0,9 0,0 0,0 0,0 0,0 0,0 0,0 0,0 0,9 0,9 0,0 9,0 9,0 0,0 0,0 0,9 0,0 0,0 0,0 0,0 0,0 0,0 0,0 0,9 0,9 0,0 0,0 0,0 9,0 9,0 9,9 0,0 0,0 0,0 0,0 0,0 0,0 0,9 0,9 0,9 0,0 0,0 0,0 0,0 0,0 0,9 0,0 0,0 9,0 0,0 0,0 0,0 0,9 0,9 0,9 0,0 0,0 0,0 0,0 0,9 0,9 0,0 0,0 0,0 0,0 0,0 0,9 0,0 0,0 0,0 0,0 0,0 0,0 0,8 0,8 0,8 9,0 9,0 9,0 0,0 0,0 0,9 0,0 0,0 0,0 0,0 0,0 0,0 0,9 0,9 0,9 0,0 0,0 0,0 0,0 0,9 0,9 0,0 0,0 0,0 0,0 0,9 0,9 0,0 0,0 0,0 0,0 0,0 0,9 0,0 0,0 0,0 0,0 0,0 0,0l0 9c0,0 0,0 0,0l0 0c0,9 0,9 0,9l0 0c0,53 -9,107 -36,151l0 0c0,0 0,0 0,0l0 0c0,9 0,9 -9,9l0 0c0,9 0,9 0,9l0 0c0,0 0,9 -9,9l0 0c0,0 0,0 0,0l0 9c0,0 0,0 -8,0l0 0c0,0 0,9 0,9l0 0c0,0 0,0 -9,9l0 0c0,0 0,0 0,0l0 0c0,9 -9,9 -9,9l0 0c0,0 0,0 0,9l0 0 0 0 0 0 0 0 0 0 0 0 0 0 0 0 0 0 0 0 0 0 0 0 0 0 0 0 0 0 0 0 0 0 0 0 0 0 0 0 0 0 0 0 0 0 0 0 0 0 0 0 0 0 0 0 0 0 0 0 0 0 0 0 0 0 0 0 0 0 0 0 0 0 0 0 0 0 0 0 0 0 0 0 0 0 0 0 0 0 0 0 0 0 0 0 0 0 0 0 0 0 0 0 0 0 0 0 0 0 0 0 0 0 0 0 0 0 0 0 0 0 0 0 0 0 0 0 0 0 0 0 0 0 0 0 0 0 0 0 0 0 0 0 0 0 0 0 0 0 0 0 0 0 0 0 0 0 0 0c26,-27 71,-18 98,9l0 0 44 44 18 0c134,-187 107,-454 -62,-623 -187,-187 -490,-187 -686,0l98 26 107 27c0,0 9,0 18,-9l0 0c0,0 0,0 0,0l0 0c8,0 17,-9 26,-9l0 0c0,0 0,0 9,0l0 0c9,0 18,-9 18,-9l0 0c9,0 9,0 9,0l0 0c9,0 18,0 18,0l0 0c0,0 9,0 9,0l0 0c0,0 0,0 9,0l0 0c0,0 9,0 17,0l0 0c0,0 0,0 0,0l0 0c9,0 9,0 9,0l0 0c9,0 9,0 18,0l0 0c0,0 0,0 9,0l0 0c0,0 0,0 0,0 9,0 9,0 9,0 0,0 0,0 9,0 0,0 0,0 0,0 0,0 0,0 0,0 0,0 9,0 9,0 0,0 0,0 0,0 0,0 0,0 0,0 9,0 9,0 9,0 0,0 0,0 0,0 0,0 9,0 9,0 0,9 0,9 0,9 0,0 9,0 9,0 0,0 0,0 0,0 0,0 0,0 0,0 8,0 8,0 8,0 0,0 0,0 0,0 0,0 9,0 9,0 0,0 0,0 0,0 0,0 9,9 9,9 0,0 0,0 0,0 0,0 0,0 0,0 9,0 9,0 9,0 0,0 0,0 0,0 0,0 0,0 9,0 0,0 0,0 0,9l0 0c9,0 9,0 9,0 0,0 0,0 0,0 0,0 9,0 9,0 0,0 0,0 0,0 0,0 0,9 9,9 0,0 0,0 0,0 0,0 0,0 0,0 9,0 9,0 9,0 0,0 0,0 0,9l0 0c9,0 9,0 9,0 0,0 0,0 0,0 0,0 9,0 9,0 0,9 0,9 0,9 0,0 0,0 9,0 0,0 0,0 0,0 0,0 0,0 0,9l0 0c9,0 9,0 9,0 0,0 0,0 0,0 0,0 8,9 8,9l0 0c0,0 0,0 0,0 9,0 9,0 9,0 0,9 0,9 0,9l0 0c0,0 9,0 9,0l0 9c0,0 0,0 9,0 0,0 0,8 0,8l0 0zm0 454c0,0 0,0 0,0 0,0 0,0 0,0zm0 0c0,0 0,0 0,0 0,0 0,0 0,0zm0 0l0 0 0 0 0 0 0 0 0 0 0 0c-9,0 -9,0 -9,0 0,0 9,0 9,0zm-27 71l0 -9 0 9 0 0 0 0zm0 -44l0 0c0,0 0,0 0,0zm9 -9l0 0c0,0 0,0 0,0z"/>
  <g id="_240751752">
   <path class="fil2" d="M2013 1808c115,125 124,320 9,454l0 0 0 0 0 0 0 0 0 0 0 0 0 0 0 0 0 0 0 0 0 0 0 0 0 0 0 0 0 0 0 0 0 0 0 0 0 0 0 0 0 0 0 0 0 0 0 0 0 0 0 0 0 0 0 0 0 0 0 0 0 0 0 0 0 0 0 0 0 0 0 0 0 0 0 0 0 0 0 0 0 0 0 0 0 0 0 0 0 0 0 0 0 0 0 0 0 0 0 0 0 0 0 0 0 0 0 0 0 0 0 0 0 0 0 0 0 0 0 0 0 0 0 0 0 0 0 0 0 0 0 0 0 0 0 0 0 0 0 0 0 0 0 0 0 0 0 0 0 0 0 0 0 0 0 0 0 0 0 0c-9,0 -9,0 -9,9 -9,0 -9,0 -9,0l0 0c0,0 0,0 0,0l0 0 0 0 0 0 0 0 0 9 0 0 0 0c0,0 0,0 0,0l0 0 0 0c0,0 0,0 0,0l-9 0 0 0 0 0 0 0 0 0 0 9 0 0 0 0 0 0c0,0 0,0 0,0l0 0 0 0 0 0 0 0 0 0 0 9 0 0 0 0 0 0 0 0 -9 0c0,0 0,0 0,0l0 0 0 0 0 0 0 0 0 9 0 0 0 0 0 0 0 0 0 0 0 0 0 0c0,0 0,0 0,0l0 0 0 9 0 0 0 0 0 0 0 0 0 0 0 0 0 0c0,0 0,9 0,9l0 0c0,0 0,0 0,0l0 0c0,0 0,0 0,0l0 0 0 0 0 0c0,8 0,8 0,8l0 0c0,0 0,0 0,9l0 0c0,9 0,18 9,27l0 0 89 89 18 9 641 169 -36 161 -62 -18 0 0 -80 142 -54 -35 -115 115 -392 -391 294 418 -134 98 -44 -80 -134 62 -45 -107 0 0 -160 45 -142 -534 -196 748 -161 -45 90 -356 -152 347 -9 0 0 9 -151 -71 160 -339 -205 294 -133 -89 205 -302 -268 267 -115 -116 757 -748 0 -9 53 -53c-9,-45 -18,-90 -27,-134l0 0 -35 -116 -27 -107 107 27 107 27c115,-54 267,-36 374,62l0 0zm-9 472c0,0 0,0 0,0l0 0zm-196 -445c18,17 18,44 0,62 -18,18 -45,18 -54,0 -17,-18 -17,-45 0,-62 9,-9 36,-9 54,0z"/>
  </g>
  <circle class="fil3" transform="matrix(0.00576664 0.00576673 -0.00576664 0.00576675 1780.1 1866.73)" r="4974"/>
  <path class="fil4" d="M1648 249l249 -249 71 71c0,0 9,9 18,18 0,0 9,9 18,18 0,9 9,9 9,18 9,9 9,9 9,17 9,18 17,36 17,54 9,18 9,36 0,53 0,18 -8,36 -17,45 -9,18 -18,35 -27,44 -18,18 -36,27 -45,36 -17,9 -35,18 -44,18 -18,9 -36,9 -54,9 -17,-9 -35,-9 -53,-18 -9,-9 -27,-18 -44,-27 -18,-9 -27,-27 -45,-44l-62 -63 0 0zm106 27c27,27 45,45 72,53 18,9 35,9 62,0 18,0 36,-17 53,-35 9,-9 18,-18 27,-27 9,-18 9,-27 9,-35 9,-9 9,-18 9,-36 -9,-9 -9,-18 -9,-27 -9,-9 -18,-18 -18,-35 -9,-9 -17,-18 -35,-27l-18 -18 -178 169 27 18 -1 0zm668 249l-213 214 124 116 -44 45 -161 -170 250 -249 44 44zm179 562c17,-9 35,-18 44,-27 0,0 18,-9 45,-18l169 -80 53 53 -356 152 -36 -45 152 -347 53 44 -80 179c-18,17 -18,35 -27,44 0,9 -9,27 -17,45l0 0zm-624 -553l116 116 -27 18 -142 -134 222 -222 134 133 -27 27 -107 -107 -71 71 98 89 -27 27 -98 -98 -71 80 0 0zm374 419l214 -223 27 27 -214 223 -27 -27zm401 356l116 116 -27 27 -134 -143 214 -222 134 133 -18 27 -107 -107 -71 71 89 98 -18 27 -98 -98 -80 71 0 0zm267 134l-89 89 -27 -27 223 -214 53 54c9,9 18,18 27,27 0,8 9,17 9,17 18,27 18,45 18,63 0,17 -9,35 -27,44 -9,9 -18,18 -27,27 -9,0 -17,0 -26,0 -18,0 -27,0 -36,0 -9,-9 -18,-9 -27,-18l-9 0 -26 160 -27 -26 27 -161 -36 -35 0 0zm107 -107l-80 89 27 18c8,9 17,18 17,27 9,0 18,8 18,8 18,9 27,9 36,9 18,0 27,-9 35,-17 9,-9 18,-18 18,-27 0,-9 0,-27 -9,-36 0,0 -9,-9 -9,-18 -9,0 -17,-8 -26,-17l-27 -36 0 0zm160 383l-89 89 -27 -27 90 -89 53 -214 27 27 -36 178 0 0 169 -44 27 26 -214 54 0 0z"/>
  <path class="fil5" d="M356 1648l-71 71 53 98 -44 35 -214 -374 36 -26 374 213 -45 36 -89 -53 0 0zm-187 -116c27,44 45,71 63,98l17 35 54 -53 -36 -18c-27,-18 -62,-35 -98,-62l0 0zm98 -241l250 250 97 -89 45 44 -134 125 -293 -294 35 -36 0 0zm552 36l-35 36 -241 -250 -71 63 -45 -45 170 -160 44 44 -62 63 240 249zm98 -392c-17,-18 -35,-27 -53,-35 -9,-9 -27,-18 -45,-27 -9,0 -26,0 -35,0 -9,0 -27,9 -27,18 -9,9 -18,17 -18,26 -9,18 -9,27 0,45 0,9 9,27 18,44 9,18 27,36 45,54 17,18 35,27 53,35 9,18 27,18 45,27 8,0 26,0 35,0 9,0 18,-9 27,-18 9,-9 18,-17 18,-26 9,-18 9,-27 0,-45 0,-9 -9,-27 -18,-44 -9,-18 -27,-36 -45,-54zm36 -35c27,26 45,44 53,71 18,18 27,44 36,62 0,27 0,45 0,63 -9,17 -18,35 -27,53 -18,18 -35,27 -53,27 -18,9 -45,9 -62,0 -27,0 -45,-9 -72,-27 -18,-18 -44,-36 -62,-53 -27,-27 -45,-45 -54,-72 -17,-18 -26,-44 -35,-62 0,-27 0,-45 0,-62 9,-18 18,-36 27,-54 17,-18 35,-27 53,-27 18,-9 45,-9 62,0 27,0 45,9 72,27 17,18 44,36 62,54zm196 -196c-18,-18 -36,-27 -54,-36 -8,-18 -26,-18 -44,-27 -9,0 -27,0 -36,0 -9,0 -17,9 -26,18 -9,9 -18,18 -18,27 -9,18 0,26 0,44 0,9 9,27 18,45 9,18 26,27 44,44 18,18 36,36 54,45 17,9 26,18 44,27 9,0 27,0 36,0 18,-9 26,-9 35,-18 9,-9 9,-18 18,-36 0,-9 0,-18 -9,-35 0,-9 -9,-27 -18,-45 -9,-18 -26,-36 -44,-53l0 0zm116 106c0,0 0,-8 9,-8 0,-9 0,-9 0,-18 9,0 9,0 9,-9 8,0 8,-9 8,-9l9 0 45 44c-9,0 -9,9 -18,18 -9,9 -18,9 -27,18 -9,9 -9,18 -17,18 0,9 -9,18 -9,18 -9,9 -9,9 -18,18 0,8 -9,8 -18,17 -9,18 -27,27 -44,27 -27,9 -45,9 -63,0 -27,0 -44,-18 -71,-27 -18,-17 -45,-35 -62,-53 -27,-27 -45,-45 -54,-71 -18,-27 -27,-45 -36,-63 0,-26 0,-44 0,-62 9,-27 18,-36 36,-54 9,-17 27,-26 45,-26 26,-9 44,-9 62,0 27,0 45,9 71,26 18,9 45,27 63,54 9,9 26,18 35,36 9,8 18,26 18,35 9,9 18,27 18,36 9,9 9,27 9,35l0 0 0 0zm213 -124c-9,9 -17,18 -35,18 -9,8 -18,8 -27,8 -18,0 -27,0 -44,0 -9,-8 -18,-8 -36,-17 -9,-9 -18,-18 -27,-27 -18,-9 -27,-18 -35,-27l-179 -178 45 -36 160 170c27,17 45,35 54,44 18,9 35,9 44,9 18,0 27,-9 36,-18 9,-9 18,-17 18,-26 0,-18 0,-36 -9,-45 -9,-18 -27,-36 -45,-53l-169 -170 36 -35 169 169c18,9 27,27 35,36 9,9 18,17 18,35 9,9 18,18 18,36 9,9 9,27 9,35 0,9 -9,27 -9,36 -9,9 -18,18 -27,36l0 0zm125 -232l98 -98 45 45 -134 133 -285 -294 125 -124 44 44 -89 89 71 81 81 -81 44 45 -80 80 80 80 0 0z"/>
 </g>
</svg>
