<?xml version="1.0" encoding="UTF-8"?>
<!DOCTYPE svg PUBLIC "-//W3C//DTD SVG 1.1//EN" "http://www.w3.org/Graphics/SVG/1.1/DTD/svg11.dtd">
<!-- Creator: CorelDRAW X7 -->
<svg xmlns="http://www.w3.org/2000/svg" xml:space="preserve" width="140.039mm" height="180.594mm" version="1.1" style="shape-rendering:geometricPrecision; text-rendering:geometricPrecision; image-rendering:optimizeQuality; fill-rule:evenodd; clip-rule:evenodd"
viewBox="0 0 13941 17978"
 xmlns:xlink="http://www.w3.org/1999/xlink">
 <defs>
  <style type="text/css">
   <![CDATA[
    .fil3 {fill:none}
    .fil1 {fill:#9A9FA4}
    .fil0 {fill:#CCCCCC}
    .fil2 {fill:#FEFEFE;fill-rule:nonzero}
   ]]>
  </style>
 </defs>
 <g id="Capa_x0020_1">
  <metadata id="CorelCorpID_0Corel-Layer"/>
  <path class="fil0" d="M6226 5516l1323 0c827,0 1323,496 1654,1323l992 0c331,0 496,166 496,662l0 1653c0,0 0,0 0,0l-2315 0c-165,-827 -661,-1323 -1488,-1323 -827,0 -1489,662 -1489,1489 0,1157 1158,1819 2150,1323l0 1322 -3803 0c-331,0 -662,-330 -662,-661l0 -3803c0,-497 331,-662 662,-662l992 0c165,-827 827,-1323 1488,-1323l0 0zm2646 1985l0 496 661 0 0 -496 -661 0z"/>
  <path class="fil1" d="M8211 9650l2480 0c165,0 165,0 165,166l0 2480c0,0 0,166 -165,166l-2480 0c-166,0 -166,-166 -166,-166l0 -2480c0,-166 0,-166 166,-166z"/>
  <path class="fil2" d="M8707 10312l1488 0c0,0 0,0 0,0 0,0 0,0 0,0l0 1323c0,0 0,0 0,0 0,0 0,0 0,0l-1488 0c0,0 0,0 0,0 0,0 0,0 0,0l0 -1323c0,0 0,0 0,0 0,0 0,0 0,0zm165 165l0 827 165 -165 496 165 -165 -165 331 -496 331 496 0 -662 -1158 0zm165 166c0,0 0,0 0,0 166,0 166,0 166,0 0,0 0,0 0,165 0,0 0,0 0,0 0,165 0,165 -166,165 0,0 0,0 0,-165 0,0 -165,0 -165,0 0,-165 165,-165 165,-165z"/>
  <path class="fil0" d="M6888 8658c330,0 661,331 661,662 0,330 -331,661 -661,661 -331,0 -662,-331 -662,-661 0,-331 331,-662 662,-662z"/>
  <rect class="fil3" width="13941" height="17978"/>
 </g>
</svg>
