<?xml version="1.0" encoding="UTF-8"?>
<!DOCTYPE svg PUBLIC "-//W3C//DTD SVG 1.1//EN" "http://www.w3.org/Graphics/SVG/1.1/DTD/svg11.dtd">
<!-- Creator: CorelDRAW X7 -->
<svg xmlns="http://www.w3.org/2000/svg" xml:space="preserve" width="35px" height="37px" version="1.1" style="shape-rendering:geometricPrecision; text-rendering:geometricPrecision; image-rendering:optimizeQuality; fill-rule:evenodd; clip-rule:evenodd"
viewBox="0 0 18 19"
 xmlns:xlink="http://www.w3.org/1999/xlink">
 <defs>
  <style type="text/css">
   <![CDATA[
    .fil1 {fill:#FEFEFE;fill-rule:nonzero}
    .fil0 {fill:#0069B2;fill-rule:nonzero}
   ]]>
  </style>
 </defs>
 <g id="Capa_x0020_1">
  <metadata id="CorelCorpID_0Corel-Layer"/>
  <g id="_272612368">
   <path class="fil0" d="M16 1c-2,0 -5,1 -5,1 0,0 7,1 6,8l-10 0c0,0 0,3 2,3 2,0 3,-1 3,-1l5 0c0,0 -1,5 -7,5 -2,0 -2,0 -2,0 0,0 -3,2 -5,2 -3,0 -3,-3 -3,-4 0,-1 2,-7 8,-11l0 0c0,0 -4,1 -7,5 0,0 0,-4 3,-6 4,-2 7,-1 7,-1 0,0 3,-2 5,-2 0,0 3,0 1,4l0 0c0,0 2,-3 -1,-3z"/>
   <path class="fil1" d="M9 6c3,0 3,2 3,2l-5 0c0,0 0,-2 2,-2z"/>
   <path class="fil1" d="M2 14c0,0 2,2 5,3 0,0 -4,2 -5,1 -1,-2 0,-4 0,-4z"/>
  </g>
 </g>
</svg>
