<?xml version="1.0" encoding="UTF-8"?>
<!DOCTYPE svg PUBLIC "-//W3C//DTD SVG 1.1//EN" "http://www.w3.org/Graphics/SVG/1.1/DTD/svg11.dtd">
<!-- Creator: CorelDRAW X7 -->
<svg xmlns="http://www.w3.org/2000/svg" xml:space="preserve" width="29.5227mm" height="33.298mm" version="1.1" style="shape-rendering:geometricPrecision; text-rendering:geometricPrecision; image-rendering:optimizeQuality; fill-rule:evenodd; clip-rule:evenodd"
viewBox="0 0 2935 3310"
 xmlns:xlink="http://www.w3.org/1999/xlink">
 <defs>
  <style type="text/css">
   <![CDATA[
    .fil0 {fill:#FFF500}
    .fil110 {fill:#7ECC02;fill-rule:nonzero}
    .fil47 {fill:#A6CF39;fill-rule:nonzero}
    .fil46 {fill:#BBE11D;fill-rule:nonzero}
    .fil1 {fill:#DFDC0F;fill-rule:nonzero}
    .fil105 {fill:url(#id0)}
    .fil86 {fill:url(#id1);fill-rule:nonzero}
    .fil49 {fill:url(#id2);fill-rule:nonzero}
    .fil18 {fill:url(#id3);fill-rule:nonzero}
    .fil3 {fill:url(#id4);fill-rule:nonzero}
    .fil32 {fill:url(#id5);fill-rule:nonzero}
    .fil67 {fill:url(#id6);fill-rule:nonzero}
    .fil54 {fill:url(#id7);fill-rule:nonzero}
    .fil81 {fill:url(#id8);fill-rule:nonzero}
    .fil61 {fill:url(#id9);fill-rule:nonzero}
    .fil109 {fill:url(#id10);fill-rule:nonzero}
    .fil41 {fill:url(#id11);fill-rule:nonzero}
    .fil34 {fill:url(#id12);fill-rule:nonzero}
    .fil84 {fill:url(#id13);fill-rule:nonzero}
    .fil21 {fill:url(#id14);fill-rule:nonzero}
    .fil2 {fill:url(#id15);fill-rule:nonzero}
    .fil95 {fill:url(#id16);fill-rule:nonzero}
    .fil64 {fill:url(#id17);fill-rule:nonzero}
    .fil89 {fill:url(#id18);fill-rule:nonzero}
    .fil11 {fill:url(#id19);fill-rule:nonzero}
    .fil90 {fill:url(#id20);fill-rule:nonzero}
    .fil63 {fill:url(#id21);fill-rule:nonzero}
    .fil72 {fill:url(#id22);fill-rule:nonzero}
    .fil36 {fill:url(#id23);fill-rule:nonzero}
    .fil35 {fill:url(#id24);fill-rule:nonzero}
    .fil15 {fill:url(#id25);fill-rule:nonzero}
    .fil33 {fill:url(#id26);fill-rule:nonzero}
    .fil31 {fill:url(#id27);fill-rule:nonzero}
    .fil29 {fill:url(#id28);fill-rule:nonzero}
    .fil45 {fill:url(#id29);fill-rule:nonzero}
    .fil43 {fill:url(#id30);fill-rule:nonzero}
    .fil10 {fill:url(#id31);fill-rule:nonzero}
    .fil57 {fill:url(#id32);fill-rule:nonzero}
    .fil27 {fill:url(#id33);fill-rule:nonzero}
    .fil62 {fill:url(#id34);fill-rule:nonzero}
    .fil69 {fill:url(#id35);fill-rule:nonzero}
    .fil5 {fill:url(#id36);fill-rule:nonzero}
    .fil92 {fill:url(#id37);fill-rule:nonzero}
    .fil100 {fill:url(#id38);fill-rule:nonzero}
    .fil91 {fill:url(#id39);fill-rule:nonzero}
    .fil52 {fill:url(#id40);fill-rule:nonzero}
    .fil14 {fill:url(#id41);fill-rule:nonzero}
    .fil26 {fill:url(#id42);fill-rule:nonzero}
    .fil76 {fill:url(#id43);fill-rule:nonzero}
    .fil59 {fill:url(#id44);fill-rule:nonzero}
    .fil75 {fill:url(#id45);fill-rule:nonzero}
    .fil87 {fill:url(#id46);fill-rule:nonzero}
    .fil70 {fill:url(#id47);fill-rule:nonzero}
    .fil58 {fill:url(#id48);fill-rule:nonzero}
    .fil60 {fill:url(#id49);fill-rule:nonzero}
    .fil77 {fill:url(#id50);fill-rule:nonzero}
    .fil107 {fill:url(#id51);fill-rule:nonzero}
    .fil65 {fill:url(#id52);fill-rule:nonzero}
    .fil106 {fill:url(#id53);fill-rule:nonzero}
    .fil97 {fill:url(#id54);fill-rule:nonzero}
    .fil108 {fill:url(#id55);fill-rule:nonzero}
    .fil71 {fill:url(#id56);fill-rule:nonzero}
    .fil66 {fill:url(#id57);fill-rule:nonzero}
    .fil68 {fill:url(#id58);fill-rule:nonzero}
    .fil73 {fill:url(#id59);fill-rule:nonzero}
    .fil55 {fill:url(#id60);fill-rule:nonzero}
    .fil98 {fill:url(#id61);fill-rule:nonzero}
    .fil96 {fill:url(#id62);fill-rule:nonzero}
    .fil99 {fill:url(#id63);fill-rule:nonzero}
    .fil7 {fill:url(#id64);fill-rule:nonzero}
    .fil22 {fill:url(#id65);fill-rule:nonzero}
    .fil82 {fill:url(#id66);fill-rule:nonzero}
    .fil17 {fill:url(#id67);fill-rule:nonzero}
    .fil39 {fill:url(#id68);fill-rule:nonzero}
    .fil101 {fill:url(#id69);fill-rule:nonzero}
    .fil13 {fill:url(#id70);fill-rule:nonzero}
    .fil48 {fill:url(#id71);fill-rule:nonzero}
    .fil88 {fill:url(#id72);fill-rule:nonzero}
    .fil20 {fill:url(#id73);fill-rule:nonzero}
    .fil6 {fill:url(#id74);fill-rule:nonzero}
    .fil4 {fill:url(#id75);fill-rule:nonzero}
    .fil16 {fill:url(#id76);fill-rule:nonzero}
    .fil94 {fill:url(#id77);fill-rule:nonzero}
    .fil102 {fill:url(#id78);fill-rule:nonzero}
    .fil103 {fill:url(#id79);fill-rule:nonzero}
    .fil30 {fill:url(#id80);fill-rule:nonzero}
    .fil37 {fill:url(#id81);fill-rule:nonzero}
    .fil93 {fill:url(#id82);fill-rule:nonzero}
    .fil51 {fill:url(#id83);fill-rule:nonzero}
    .fil25 {fill:url(#id84);fill-rule:nonzero}
    .fil85 {fill:url(#id85);fill-rule:nonzero}
    .fil74 {fill:url(#id86);fill-rule:nonzero}
    .fil50 {fill:url(#id87);fill-rule:nonzero}
    .fil38 {fill:url(#id88);fill-rule:nonzero}
    .fil56 {fill:url(#id89);fill-rule:nonzero}
    .fil9 {fill:url(#id90);fill-rule:nonzero}
    .fil12 {fill:url(#id91);fill-rule:nonzero}
    .fil83 {fill:url(#id92);fill-rule:nonzero}
    .fil8 {fill:url(#id93);fill-rule:nonzero}
    .fil79 {fill:url(#id94);fill-rule:nonzero}
    .fil24 {fill:url(#id95);fill-rule:nonzero}
    .fil53 {fill:url(#id96);fill-rule:nonzero}
    .fil23 {fill:url(#id97);fill-rule:nonzero}
    .fil40 {fill:url(#id98);fill-rule:nonzero}
    .fil28 {fill:url(#id99);fill-rule:nonzero}
    .fil44 {fill:url(#id100);fill-rule:nonzero}
    .fil78 {fill:url(#id101);fill-rule:nonzero}
    .fil19 {fill:url(#id102);fill-rule:nonzero}
    .fil80 {fill:url(#id103);fill-rule:nonzero}
    .fil42 {fill:url(#id104);fill-rule:nonzero}
    .fil104 {fill:url(#id105);fill-rule:nonzero}
    .fil111 {fill:url(#id106);fill-rule:nonzero}
   ]]>
  </style>
  <linearGradient id="id0" gradientUnits="userSpaceOnUse" x1="72.9289" y1="1132.55" x2="4.37415" y2="1086.5">
   <stop offset="0" style="stop-opacity:1; stop-color:#A42721"/>
   <stop offset="1" style="stop-opacity:1; stop-color:#9A2435"/>
  </linearGradient>
  <linearGradient id="id1" gradientUnits="userSpaceOnUse" x1="895.447" y1="732.222" x2="895.447" y2="850.185">
   <stop offset="0" style="stop-opacity:1; stop-color:#B93321"/>
   <stop offset="1" style="stop-opacity:1; stop-color:#9B2621"/>
  </linearGradient>
  <linearGradient id="id2" gradientUnits="userSpaceOnUse" x1="2240.39" y1="353.908" x2="2240.39" y2="118.997">
   <stop offset="0" style="stop-opacity:1; stop-color:#A6CF39"/>
   <stop offset="1" style="stop-opacity:1; stop-color:#A6CF39"/>
  </linearGradient>
  <linearGradient id="id3" gradientUnits="userSpaceOnUse" x1="728.156" y1="2036.99" x2="728.156" y2="1462.41">
   <stop offset="0" style="stop-opacity:1; stop-color:#C82932"/>
   <stop offset="1" style="stop-opacity:1; stop-color:#BA274B"/>
  </linearGradient>
  <linearGradient id="id4" gradientUnits="userSpaceOnUse" x1="813.581" y1="2879.55" x2="1048.5" y2="2879.55">
   <stop offset="0" style="stop-opacity:1; stop-color:#A6CF39"/>
   <stop offset="2.85098" style="stop-opacity:1; stop-color:#A6CF39"/>
   <stop offset="1" style="stop-opacity:1; stop-color:#A6CF39"/>
  </linearGradient>
  <linearGradient id="id5" gradientUnits="userSpaceOnUse" xlink:href="#id1" x1="434.253" y1="1534.61" x2="317.305" y2="1534.61">
  </linearGradient>
  <linearGradient id="id6" gradientUnits="userSpaceOnUse" x1="1030.91" y1="829.656" x2="1247.13" y2="614.448">
   <stop offset="0" style="stop-opacity:1; stop-color:#A42721"/>
   <stop offset="0.45098" style="stop-opacity:1; stop-color:#9F262B"/>
   <stop offset="0.388235" style="stop-opacity:1; stop-color:#9F262B"/>
   <stop offset="1" style="stop-opacity:1; stop-color:#9A2435"/>
  </linearGradient>
  <linearGradient id="id7" gradientUnits="userSpaceOnUse" x1="2495.61" y1="396.168" x2="2361.44" y2="597.419">
   <stop offset="0" style="stop-opacity:1; stop-color:#408701"/>
   <stop offset="1" style="stop-opacity:1; stop-color:#A6CF39"/>
  </linearGradient>
  <linearGradient id="id8" gradientUnits="userSpaceOnUse" x1="200.167" y1="474.684" x2="45.9584" y2="706.017">
   <stop offset="0" style="stop-opacity:1; stop-color:#B4E10D"/>
   <stop offset="1" style="stop-opacity:1; stop-color:#CCDF0E"/>
  </linearGradient>
  <linearGradient id="id9" gradientUnits="userSpaceOnUse" x1="1558.92" y1="470.748" x2="1418.78" y2="329.602">
   <stop offset="0" style="stop-opacity:1; stop-color:#D8351C"/>
   <stop offset="1" style="stop-opacity:1; stop-color:#BE2A20"/>
  </linearGradient>
  <linearGradient id="id10" gradientUnits="userSpaceOnUse" x1="1521.66" y1="2974.76" x2="1600.43" y2="2931.79">
   <stop offset="0" style="stop-opacity:1; stop-color:#DE3E4E"/>
   <stop offset="6.07843" style="stop-opacity:1; stop-color:#DD3749"/>
   <stop offset="1" style="stop-opacity:1; stop-color:#DB2F43"/>
  </linearGradient>
  <linearGradient id="id11" gradientUnits="userSpaceOnUse" x1="610.631" y1="1644.03" x2="476.523" y2="1844.17">
   <stop offset="0" style="stop-opacity:1; stop-color:#B82720"/>
   <stop offset="1" style="stop-opacity:1; stop-color:#BE2730"/>
  </linearGradient>
  <linearGradient id="id12" gradientUnits="userSpaceOnUse" x1="777.604" y1="1258.25" x2="645.147" y2="1522.15">
   <stop offset="0" style="stop-opacity:1; stop-color:#E25D3F"/>
   <stop offset="1" style="stop-opacity:1; stop-color:#DE4438"/>
  </linearGradient>
  <linearGradient id="id13" gradientUnits="userSpaceOnUse" x1="478.959" y1="461.065" x2="793.281" y2="539.64">
   <stop offset="0" style="stop-opacity:1; stop-color:#E56E28"/>
   <stop offset="1" style="stop-opacity:1; stop-color:#E3603A"/>
  </linearGradient>
  <linearGradient id="id14" gradientUnits="userSpaceOnUse" x1="746.537" y1="2508.7" x2="867.403" y2="2266.99">
   <stop offset="0" style="stop-opacity:1; stop-color:#D96620"/>
   <stop offset="3.56863" style="stop-opacity:1; stop-color:#D75A1E"/>
   <stop offset="1" style="stop-opacity:1; stop-color:#D44E1B"/>
  </linearGradient>
  <linearGradient id="id15" gradientUnits="userSpaceOnUse" x1="734.359" y1="2985.92" x2="530.763" y2="2782.32">
   <stop offset="0" style="stop-opacity:1; stop-color:#D5EC42"/>
   <stop offset="1" style="stop-opacity:1; stop-color:#E5E733"/>
  </linearGradient>
  <linearGradient id="id16" gradientUnits="userSpaceOnUse" x1="957.958" y1="175.403" x2="1122.76" y2="340.209">
   <stop offset="0" style="stop-opacity:1; stop-color:#E14A67"/>
   <stop offset="1" style="stop-opacity:1; stop-color:#E13E73"/>
  </linearGradient>
  <linearGradient id="id17" gradientUnits="userSpaceOnUse" x1="1716.88" y1="829.577" x2="1550.64" y2="663.339">
   <stop offset="0" style="stop-opacity:1; stop-color:#E6715B"/>
   <stop offset="1" style="stop-opacity:1; stop-color:#E2565A"/>
  </linearGradient>
  <linearGradient id="id18" gradientUnits="userSpaceOnUse" x1="816.255" y1="377.429" x2="974.639" y2="535.813">
   <stop offset="0" style="stop-opacity:1; stop-color:#DD3C2A"/>
   <stop offset="1" style="stop-opacity:1; stop-color:#DC3436"/>
  </linearGradient>
  <linearGradient id="id19" gradientUnits="userSpaceOnUse" x1="886.351" y1="2177.79" x2="983.875" y2="2080.26">
   <stop offset="0" style="stop-opacity:1; stop-color:#B93321"/>
   <stop offset="5.05882" style="stop-opacity:1; stop-color:#AA2D21"/>
   <stop offset="1" style="stop-opacity:1; stop-color:#9B2621"/>
  </linearGradient>
  <linearGradient id="id20" gradientUnits="userSpaceOnUse" xlink:href="#id17" x1="614.965" y1="243.998" x2="887.117" y2="312.294">
  </linearGradient>
  <linearGradient id="id21" gradientUnits="userSpaceOnUse" xlink:href="#id18" x1="1528.52" y1="686.97" x2="1449.18" y2="448.996">
  </linearGradient>
  <linearGradient id="id22" gradientUnits="userSpaceOnUse" x1="1415.66" y1="216.958" x2="1180.67" y2="137.965">
   <stop offset="0" style="stop-opacity:1; stop-color:#8B2420"/>
   <stop offset="1" style="stop-opacity:1; stop-color:#7F2223"/>
  </linearGradient>
  <linearGradient id="id23" gradientUnits="userSpaceOnUse" xlink:href="#id17" x1="923.909" y1="1254.52" x2="856.826" y2="1525.88">
  </linearGradient>
  <linearGradient id="id24" gradientUnits="userSpaceOnUse" xlink:href="#id18" x1="790.696" y1="1455.29" x2="632.054" y2="1612.92">
  </linearGradient>
  <linearGradient id="id25" gradientUnits="userSpaceOnUse" x1="338.092" y1="2355.87" x2="503.961" y2="2190">
   <stop offset="0" style="stop-opacity:1; stop-color:#E6715B"/>
   <stop offset="5.94118" style="stop-opacity:1; stop-color:#E4645B"/>
   <stop offset="1" style="stop-opacity:1; stop-color:#E2565A"/>
  </linearGradient>
  <linearGradient id="id26" gradientUnits="userSpaceOnUse" xlink:href="#id9" x1="613.693" y1="1463.99" x2="473.462" y2="1604.22">
  </linearGradient>
  <linearGradient id="id27" gradientUnits="userSpaceOnUse" x1="212.086" y1="1683.55" x2="77.7604" y2="1818.89">
   <stop offset="0" style="stop-opacity:1; stop-color:#C5381F"/>
   <stop offset="1" style="stop-opacity:1; stop-color:#B32E21"/>
  </linearGradient>
  <linearGradient id="id28" gradientUnits="userSpaceOnUse" x1="710.371" y1="973.218" x2="624.936" y2="1231.57">
   <stop offset="0" style="stop-opacity:1; stop-color:#E19340"/>
   <stop offset="1" style="stop-opacity:1; stop-color:#E47D3A"/>
  </linearGradient>
  <linearGradient id="id29" gradientUnits="userSpaceOnUse" x1="514.052" y1="1275.33" x2="426.648" y2="1447.1">
   <stop offset="0" style="stop-opacity:1; stop-color:#D7421B"/>
   <stop offset="1" style="stop-opacity:1; stop-color:#CB421E"/>
  </linearGradient>
  <linearGradient id="id30" gradientUnits="userSpaceOnUse" x1="492.3" y1="1115.03" x2="360.956" y2="1246.37">
   <stop offset="0" style="stop-opacity:1; stop-color:#B76522"/>
   <stop offset="1" style="stop-opacity:1; stop-color:#D0681F"/>
  </linearGradient>
  <linearGradient id="id31" gradientUnits="userSpaceOnUse" x1="774.164" y1="2202" x2="907.914" y2="2066.21">
   <stop offset="0" style="stop-opacity:1; stop-color:#C5381F"/>
   <stop offset="3.9098" style="stop-opacity:1; stop-color:#BC3320"/>
   <stop offset="1" style="stop-opacity:1; stop-color:#B32E21"/>
  </linearGradient>
  <linearGradient id="id32" gradientUnits="userSpaceOnUse" xlink:href="#id13" x1="1874.58" y1="618.037" x2="1621.77" y2="429.452">
  </linearGradient>
  <linearGradient id="id33" gradientUnits="userSpaceOnUse" xlink:href="#id8" x1="692.775" y1="840.84" x2="461.502" y2="685.637">
  </linearGradient>
  <linearGradient id="id34" gradientUnits="userSpaceOnUse" xlink:href="#id12" x1="1712.71" y1="687.158" x2="1554.82" y2="448.807">
  </linearGradient>
  <linearGradient id="id35" gradientUnits="userSpaceOnUse" xlink:href="#id3" x1="1397.32" y1="438.826" x2="821.723" y2="438.826">
  </linearGradient>
  <linearGradient id="id36" gradientUnits="userSpaceOnUse" x1="667.147" y1="2730.04" x2="860.345" y2="2601.92">
   <stop offset="0" style="stop-opacity:1; stop-color:#CB8C2A"/>
   <stop offset="4.63137" style="stop-opacity:1; stop-color:#D48E31"/>
   <stop offset="1" style="stop-opacity:1; stop-color:#DE9039"/>
  </linearGradient>
  <linearGradient id="id37" gradientUnits="userSpaceOnUse" x1="867.771" y1="74.0125" x2="1041.11" y2="247.348">
   <stop offset="0" style="stop-opacity:1; stop-color:#E7668B"/>
   <stop offset="1" style="stop-opacity:1; stop-color:#E4547B"/>
  </linearGradient>
  <linearGradient id="id38" gradientUnits="userSpaceOnUse" xlink:href="#id30" x1="476.205" y1="675.527" x2="607.887" y2="807.209">
  </linearGradient>
  <linearGradient id="id39" gradientUnits="userSpaceOnUse" x1="751.369" y1="78.6352" x2="915.459" y2="242.725">
   <stop offset="0" style="stop-opacity:1; stop-color:#E35A61"/>
   <stop offset="1" style="stop-opacity:1; stop-color:#E45C72"/>
  </linearGradient>
  <linearGradient id="id40" gradientUnits="userSpaceOnUse" x1="2185.73" y1="504.558" x2="2066.22" y2="326.311">
   <stop offset="0" style="stop-opacity:1; stop-color:#C99728"/>
   <stop offset="1" style="stop-opacity:1; stop-color:#D7AF36"/>
  </linearGradient>
  <linearGradient id="id41" gradientUnits="userSpaceOnUse" x1="483.532" y1="2167.68" x2="715.501" y2="2089.36">
   <stop offset="0" style="stop-opacity:1; stop-color:#DD3C2A"/>
   <stop offset="4.03922" style="stop-opacity:1; stop-color:#DD3830"/>
   <stop offset="1" style="stop-opacity:1; stop-color:#DC3436"/>
  </linearGradient>
  <linearGradient id="id42" gradientUnits="userSpaceOnUse" xlink:href="#id2" x1="704.198" y1="933.045" x2="450.08" y2="848.684">
  </linearGradient>
  <linearGradient id="id43" gradientUnits="userSpaceOnUse" x1="1742.21" y1="239.306" x2="1581.24" y2="158.324">
   <stop offset="0" style="stop-opacity:1; stop-color:#973D23"/>
   <stop offset="1" style="stop-opacity:1; stop-color:#BF4420"/>
  </linearGradient>
  <linearGradient id="id44" gradientUnits="userSpaceOnUse" xlink:href="#id27" x1="1560.91" y1="394.956" x2="1426.95" y2="258.959">
  </linearGradient>
  <linearGradient id="id45" gradientUnits="userSpaceOnUse" x1="1868.92" y1="421.151" x2="1627.43" y2="299.887">
   <stop offset="0" style="stop-opacity:1; stop-color:#D96620"/>
   <stop offset="1" style="stop-opacity:1; stop-color:#D44E1B"/>
  </linearGradient>
  <linearGradient id="id46" gradientUnits="userSpaceOnUse" xlink:href="#id9" x1="825.739" y1="553.19" x2="965.155" y2="693.62">
  </linearGradient>
  <linearGradient id="id47" gradientUnits="userSpaceOnUse" x1="1336.77" y1="309.58" x2="1259.57" y2="155.173">
   <stop offset="0" style="stop-opacity:1; stop-color:#9A2621"/>
   <stop offset="1" style="stop-opacity:1; stop-color:#9A2621"/>
  </linearGradient>
  <linearGradient id="id48" gradientUnits="userSpaceOnUse" x1="1677.59" y1="200.386" x2="1464.85" y2="130.141">
   <stop offset="0" style="stop-opacity:1; stop-color:#893221"/>
   <stop offset="1" style="stop-opacity:1; stop-color:#A02E21"/>
  </linearGradient>
  <linearGradient id="id49" gradientUnits="userSpaceOnUse" xlink:href="#id1" x1="1537.79" y1="281.317" x2="1439.91" y2="183.436">
  </linearGradient>
  <linearGradient id="id50" gradientUnits="userSpaceOnUse" xlink:href="#id29" x1="1747.38" y1="369.536" x2="1576.07" y2="284.379">
  </linearGradient>
  <linearGradient id="id51" gradientUnits="userSpaceOnUse" xlink:href="#id2" x1="1207.14" y1="3168.87" x2="1207.14" y2="3030.57">
  </linearGradient>
  <linearGradient id="id52" gradientUnits="userSpaceOnUse" x1="1430.85" y1="689.435" x2="1348.54" y2="522.8">
   <stop offset="0" style="stop-opacity:1; stop-color:#DE3E4E"/>
   <stop offset="1" style="stop-opacity:1; stop-color:#DB2F43"/>
  </linearGradient>
  <linearGradient id="id53" gradientUnits="userSpaceOnUse" x1="1487.68" y1="3109.87" x2="1561.2" y2="2999.06">
   <stop offset="0" style="stop-opacity:1; stop-color:#E0A250"/>
   <stop offset="7.78824" style="stop-opacity:1; stop-color:#E29B51"/>
   <stop offset="1" style="stop-opacity:1; stop-color:#E59352"/>
  </linearGradient>
  <linearGradient id="id54" gradientUnits="userSpaceOnUse" x1="1091.08" y1="204.73" x2="1220.5" y2="398.345">
   <stop offset="0" style="stop-opacity:1; stop-color:#DF3567"/>
   <stop offset="1" style="stop-opacity:1; stop-color:#D6306D"/>
  </linearGradient>
  <linearGradient id="id55" gradientUnits="userSpaceOnUse" xlink:href="#id52" x1="1139.29" y1="1295.67" x2="1056.36" y2="1129.81">
  </linearGradient>
  <linearGradient id="id56" gradientUnits="userSpaceOnUse" xlink:href="#id0" x1="1371.7" y1="395.81" x2="1187.01" y2="272.34">
  </linearGradient>
  <linearGradient id="id57" gradientUnits="userSpaceOnUse" x1="1382" y1="621.854" x2="1170.61" y2="551.729">
   <stop offset="0" style="stop-opacity:1; stop-color:#D72C3E"/>
   <stop offset="1" style="stop-opacity:1; stop-color:#D9305B"/>
  </linearGradient>
  <linearGradient id="id58" gradientUnits="userSpaceOnUse" xlink:href="#id11" x1="1394.93" y1="439.373" x2="1163.79" y2="360.976">
  </linearGradient>
  <linearGradient id="id59" gradientUnits="userSpaceOnUse" xlink:href="#id30" x1="1907.17" y1="349.166" x2="1776.3" y2="217.286">
  </linearGradient>
  <linearGradient id="id60" gradientUnits="userSpaceOnUse" x1="2029.06" y1="720.66" x2="1814.07" y2="576.99">
   <stop offset="0" style="stop-opacity:1; stop-color:#E0A250"/>
   <stop offset="1" style="stop-opacity:1; stop-color:#E59352"/>
  </linearGradient>
  <linearGradient id="id61" gradientUnits="userSpaceOnUse" xlink:href="#id11" x1="1004.15" y1="557.226" x2="1204.73" y2="689.584">
  </linearGradient>
  <linearGradient id="id62" gradientUnits="userSpaceOnUse" xlink:href="#id57" x1="1066.44" y1="355.698" x2="1148.53" y2="518.893">
  </linearGradient>
  <linearGradient id="id63" gradientUnits="userSpaceOnUse" xlink:href="#id54" x1="1203.43" y1="830.302" x2="967.82" y2="752.105">
  </linearGradient>
  <linearGradient id="id64" gradientUnits="userSpaceOnUse" x1="446.889" y1="2668.14" x2="590.44" y2="2453.31">
   <stop offset="0" style="stop-opacity:1; stop-color:#E0A250"/>
   <stop offset="4.67059" style="stop-opacity:1; stop-color:#E29B51"/>
   <stop offset="1" style="stop-opacity:1; stop-color:#E59352"/>
  </linearGradient>
  <linearGradient id="id65" gradientUnits="userSpaceOnUse" x1="927.776" y1="2382.65" x2="1009.55" y2="2221.16">
   <stop offset="0" style="stop-opacity:1; stop-color:#973D23"/>
   <stop offset="4.61176" style="stop-opacity:1; stop-color:#AB4022"/>
   <stop offset="1" style="stop-opacity:1; stop-color:#BF4420"/>
  </linearGradient>
  <linearGradient id="id66" gradientUnits="userSpaceOnUse" x1="534.193" y1="268.582" x2="392.291" y2="481.941">
   <stop offset="0" style="stop-opacity:1; stop-color:#E8E52E"/>
   <stop offset="1" style="stop-opacity:1; stop-color:#EADD31"/>
  </linearGradient>
  <linearGradient id="id67" gradientUnits="userSpaceOnUse" x1="727.629" y1="2038.54" x2="806.98" y2="1801.52">
   <stop offset="0" style="stop-opacity:1; stop-color:#B82720"/>
   <stop offset="2.41176" style="stop-opacity:1; stop-color:#BB2728"/>
   <stop offset="1" style="stop-opacity:1; stop-color:#BE2730"/>
  </linearGradient>
  <linearGradient id="id68" gradientUnits="userSpaceOnUse" xlink:href="#id52" x1="832.698" y1="1591.91" x2="666.322" y2="1675.62">
  </linearGradient>
  <linearGradient id="id69" gradientUnits="userSpaceOnUse" xlink:href="#id45" x1="551.58" y1="580.051" x2="720.66" y2="748.118">
  </linearGradient>
  <linearGradient id="id70" gradientUnits="userSpaceOnUse" x1="480.778" y1="2352.59" x2="718.255" y2="2193.26">
   <stop offset="0" style="stop-opacity:1; stop-color:#E25D3F"/>
   <stop offset="3.96078" style="stop-opacity:1; stop-color:#E0513C"/>
   <stop offset="1" style="stop-opacity:1; stop-color:#DE4438"/>
  </linearGradient>
  <linearGradient id="id71" gradientUnits="userSpaceOnUse" xlink:href="#id15" x1="2345.74" y1="432.623" x2="2142.15" y2="636.219">
  </linearGradient>
  <linearGradient id="id72" gradientUnits="userSpaceOnUse" xlink:href="#id12" x1="618.544" y1="390.621" x2="883.538" y2="522.621">
  </linearGradient>
  <linearGradient id="id73" gradientUnits="userSpaceOnUse" x1="818.502" y1="2548.69" x2="950.015" y2="2416.16">
   <stop offset="0" style="stop-opacity:1; stop-color:#B76522"/>
   <stop offset="4.65098" style="stop-opacity:1; stop-color:#C36621"/>
   <stop offset="1" style="stop-opacity:1; stop-color:#D0681F"/>
  </linearGradient>
  <linearGradient id="id74" gradientUnits="userSpaceOnUse" x1="663.508" y1="2825.69" x2="842.629" y2="2706.61">
   <stop offset="0" style="stop-opacity:1; stop-color:#C99728"/>
   <stop offset="5.23922" style="stop-opacity:1; stop-color:#D0A32F"/>
   <stop offset="1" style="stop-opacity:1; stop-color:#D7AF36"/>
  </linearGradient>
  <linearGradient id="id75" gradientUnits="userSpaceOnUse" x1="836.545" y1="2760.91" x2="931.981" y2="2571.05">
   <stop offset="0" style="stop-opacity:1; stop-color:#C28123"/>
   <stop offset="5.41961" style="stop-opacity:1; stop-color:#C27A23"/>
   <stop offset="1" style="stop-opacity:1; stop-color:#C27223"/>
  </linearGradient>
  <linearGradient id="id76" gradientUnits="userSpaceOnUse" xlink:href="#id0" x1="336.66" y1="1670.91" x2="553.2" y2="1886.44">
  </linearGradient>
  <linearGradient id="id77" gradientUnits="userSpaceOnUse" xlink:href="#id52" x1="953.494" y1="334.741" x2="1036.72" y2="501.217">
  </linearGradient>
  <linearGradient id="id78" gradientUnits="userSpaceOnUse" xlink:href="#id43" x1="682.357" y1="745.384" x2="762.762" y2="905.16">
  </linearGradient>
  <linearGradient id="id79" gradientUnits="userSpaceOnUse" xlink:href="#id29" x1="636.597" y1="655.426" x2="808.521" y2="740.881">
  </linearGradient>
  <linearGradient id="id80" gradientUnits="userSpaceOnUse" xlink:href="#id13" x1="706.206" y1="1118.56" x2="629.102" y2="1432.01">
  </linearGradient>
  <linearGradient id="id81" gradientUnits="userSpaceOnUse" xlink:href="#id39" x1="1088.85" y1="1390.02" x2="924.764" y2="1554.11">
  </linearGradient>
  <linearGradient id="id82" gradientUnits="userSpaceOnUse" x1="919.257" y1="117.416" x2="1161.46" y2="239.534">
   <stop offset="0" style="stop-opacity:1; stop-color:#E14A6B"/>
   <stop offset="1" style="stop-opacity:1; stop-color:#DF4989"/>
  </linearGradient>
  <linearGradient id="id83" gradientUnits="userSpaceOnUse" x1="2091.31" y1="499.706" x2="1962.33" y2="307.761">
   <stop offset="0" style="stop-opacity:1; stop-color:#CB8C2A"/>
   <stop offset="1" style="stop-opacity:1; stop-color:#DE9039"/>
  </linearGradient>
  <linearGradient id="id84" gradientUnits="userSpaceOnUse" xlink:href="#id83" x1="627.074" y1="916.702" x2="466.185" y2="1077.59">
  </linearGradient>
  <linearGradient id="id85" gradientUnits="userSpaceOnUse" xlink:href="#id27" x1="823.324" y1="630.603" x2="957.411" y2="765.704">
  </linearGradient>
  <linearGradient id="id86" gradientUnits="userSpaceOnUse" x1="1909.6" y1="246.225" x2="1720.98" y2="151.405">
   <stop offset="0" style="stop-opacity:1; stop-color:#A65823"/>
   <stop offset="1" style="stop-opacity:1; stop-color:#A64A23"/>
  </linearGradient>
  <linearGradient id="id87" gradientUnits="userSpaceOnUse" x1="2121.84" y1="330.487" x2="1931.8" y2="235.965">
   <stop offset="0" style="stop-opacity:1; stop-color:#C28123"/>
   <stop offset="1" style="stop-opacity:1; stop-color:#C27223"/>
  </linearGradient>
  <linearGradient id="id88" gradientUnits="userSpaceOnUse" xlink:href="#id82" x1="1049" y1="1558.01" x2="927.995" y2="1800.02">
  </linearGradient>
  <linearGradient id="id89" gradientUnits="userSpaceOnUse" xlink:href="#id28" x1="2034.24" y1="598.691" x2="1808.89" y2="448.797">
  </linearGradient>
  <linearGradient id="id90" gradientUnits="userSpaceOnUse" x1="548.737" y1="2513.84" x2="737.739" y2="2261.85">
   <stop offset="0" style="stop-opacity:1; stop-color:#E56E28"/>
   <stop offset="3.16078" style="stop-opacity:1; stop-color:#E46731"/>
   <stop offset="1" style="stop-opacity:1; stop-color:#E3603A"/>
  </linearGradient>
  <linearGradient id="id91" gradientUnits="userSpaceOnUse" x1="697.289" y1="2199.04" x2="837.321" y2="2058">
   <stop offset="0" style="stop-opacity:1; stop-color:#D8351C"/>
   <stop offset="3.85882" style="stop-opacity:1; stop-color:#CB301E"/>
   <stop offset="1" style="stop-opacity:1; stop-color:#BE2A20"/>
  </linearGradient>
  <linearGradient id="id92" gradientUnits="userSpaceOnUse" xlink:href="#id28" x1="337.654" y1="458.162" x2="588.83" y2="542.543">
  </linearGradient>
  <linearGradient id="id93" gradientUnits="userSpaceOnUse" x1="568.102" y1="2673.43" x2="718.374" y2="2448.02">
   <stop offset="0" style="stop-opacity:1; stop-color:#E19340"/>
   <stop offset="4.4902" style="stop-opacity:1; stop-color:#E2883D"/>
   <stop offset="1" style="stop-opacity:1; stop-color:#E47D3A"/>
  </linearGradient>
  <linearGradient id="id94" gradientUnits="userSpaceOnUse" xlink:href="#id83" x1="276.347" y1="540.237" x2="437.594" y2="701.484">
  </linearGradient>
  <linearGradient id="id95" gradientUnits="userSpaceOnUse" xlink:href="#id15" x1="446.749" y1="874.68" x2="336.322" y2="651.797">
  </linearGradient>
  <linearGradient id="id96" gradientUnits="userSpaceOnUse" x1="2239.36" y1="546.112" x2="2239.36" y2="284.757">
   <stop offset="0" style="stop-opacity:1; stop-color:#A8D372"/>
   <stop offset="1" style="stop-opacity:1; stop-color:#B0D660"/>
  </linearGradient>
  <linearGradient id="id97" gradientUnits="userSpaceOnUse" x1="797.755" y1="2387.98" x2="884.323" y2="2215.83">
   <stop offset="0" style="stop-opacity:1; stop-color:#D7421B"/>
   <stop offset="4.92941" style="stop-opacity:1; stop-color:#D1421C"/>
   <stop offset="1" style="stop-opacity:1; stop-color:#CB421E"/>
  </linearGradient>
  <linearGradient id="id98" gradientUnits="userSpaceOnUse" xlink:href="#id57" x1="811.891" y1="1706.04" x2="648.497" y2="1787.24">
  </linearGradient>
  <linearGradient id="id99" gradientUnits="userSpaceOnUse" xlink:href="#id66" x1="898.261" y1="1173.42" x2="685.18" y2="1031.36">
  </linearGradient>
  <linearGradient id="id100" gradientUnits="userSpaceOnUse" xlink:href="#id45" x1="588.094" y1="1191.1" x2="419.729" y2="1359.46">
  </linearGradient>
  <linearGradient id="id101" gradientUnits="userSpaceOnUse" xlink:href="#id15" x1="234.255" y1="719.587" x2="11.8698" y2="831.287">
  </linearGradient>
  <linearGradient id="id102" gradientUnits="userSpaceOnUse" x1="771.907" y1="2012.04" x2="894.92" y2="1828.03">
   <stop offset="0" style="stop-opacity:1; stop-color:#A42721"/>
   <stop offset="2.45098" style="stop-opacity:1; stop-color:#9F262B"/>
   <stop offset="1" style="stop-opacity:1; stop-color:#9A2435"/>
  </linearGradient>
  <linearGradient id="id103" gradientUnits="userSpaceOnUse" xlink:href="#id2" x1="293.356" y1="466.413" x2="210.068" y2="714.288">
  </linearGradient>
  <linearGradient id="id104" gradientUnits="userSpaceOnUse" x1="276.058" y1="2091.56" x2="306.677" y2="1997.67">
   <stop offset="0" style="stop-opacity:1; stop-color:#DF3567"/>
   <stop offset="6.76863" style="stop-opacity:1; stop-color:#DB336A"/>
   <stop offset="1" style="stop-opacity:1; stop-color:#D6306D"/>
  </linearGradient>
  <linearGradient id="id105" gradientUnits="userSpaceOnUse" xlink:href="#id82" x1="2887.56" y1="538.646" x2="2929.02" y2="559.662">
  </linearGradient>
  <linearGradient id="id106" gradientUnits="userSpaceOnUse" xlink:href="#id52" x1="2602.58" y1="342.376" x2="2542.77" y2="189.023">
  </linearGradient>
 </defs>
 <g id="Capa_x0020_1">
  <metadata id="CorelCorpID_0Corel-Layer"/>
  <polygon class="fil0" points="719,2576 640,2829 324,2792 424,2576 "/>
  <polygon id="_59960352" class="fil1" points="341,3106 532,2975 479,2785 302,2792 "/>
  <polygon id="_59961072" class="fil2" points="532,2975 438,2788 766,2801 827,2981 "/>
  <polygon id="_59961792" class="fil3" points="814,2982 1049,2983 884,2776 "/>
  <polygon id="_59962608" class="fil4" points="884,2776 984,2571 784,2556 "/>
  <polygon id="_59963448" class="fil5" points="884,2776 784,2556 644,2693 "/>
  <polygon id="_59964096" class="fil6" points="622,2839 622,2839 644,2693 884,2776 "/>
  <polygon id="_59966016" class="fil1" points="622,2839 302,2792 394,2634 "/>
  <polygon id="_59966856" class="fil7" points="644,2693 394,2634 502,2429 "/>
  <polygon id="_59967840" class="fil8" points="644,2693 784,2556 502,2429 "/>
  <polygon id="_59968800" class="fil9" points="784,2556 502,2429 734,2220 "/>
  <polygon id="_59970648" class="fil10" points="734,2220 948,2210 877,2048 "/>
  <polygon id="_59971608" class="fil11" points="948,2210 994,2082 877,2048 "/>
  <polygon id="_59972568" class="fil12" points="658,2037 658,2037 877,2048 734,2220 "/>
  <polygon id="_59973528" class="fil13" points="502,2429 734,2220 465,2117 "/>
  <polygon id="_60199808" class="fil14" points="734,2220 658,2037 465,2117 "/>
  <polygon id="_60200768" class="fil15" points="502,2429 465,2117 340,2265 "/>
  <polygon id="_60203648" class="fil16" points="503,1941 299,1851 399,1832 434,1616 530,1806 591,1795 554,1855 562,1872 562,1872 545,1872 "/>
  <polygon id="_60204608" class="fil17" points="877,2048 658,2037 748,1792 "/>
  <polygon id="_60205616" class="fil18" points="658,2037 591,1795 606,1535 865,1462 "/>
  <polygon id="_60207056" class="fil19" points="748,1792 748,1792 918,1794 877,2048 "/>
  <polygon id="_60237344" class="fil20" points="984,2571 984,2571 784,2556 880,2394 "/>
  <polygon id="_60239264" class="fil21" points="784,2556 734,2220 880,2394 "/>
  <polygon id="_60240176" class="fil22" points="1058,2340 948,2210 880,2394 "/>
  <polygon id="_60241136" class="fil23" points="734,2220 948,2210 880,2394 "/>
  <polygon id="_60241952" class="fil24" points="521,640 262,681 427,887 "/>
  <polygon id="_60243632" class="fil25" points="427,887 526,1107 666,970 "/>
  <polygon id="_60244208" class="fil26" points="727,812 666,970 427,887 "/>
  <polygon id="_60244928" class="fil27" points="521,640 427,887 727,812 "/>
  <polygon id="_60245720" class="fil28" points="666,970 917,1029 810,1235 "/>
  <polygon id="_60246512" class="fil29" points="666,970 526,1107 810,1235 "/>
  <polygon id="_60247280" class="fil30" points="526,1107 810,1235 577,1443 "/>
  <polygon id="_60248768" class="fil31" points="251,1665 39,1675 110,1838 "/>
  <polygon id="_60249536" class="fil32" points="364,1453 317,1581 434,1616 "/>
  <polygon id="_60250304" class="fil33" points="653,1625 653,1625 434,1616 577,1443 "/>
  <polygon id="_60251072" class="fil34" points="810,1235 577,1443 846,1546 "/>
  <polygon id="_60251840" class="fil35" points="577,1443 653,1625 846,1546 "/>
  <polygon id="_60420584" class="fil36" points="810,1235 846,1546 971,1398 "/>
  <polygon id="_60421184" class="fil37" points="971,1398 846,1546 1167,1507 "/>
  <polygon id="_60422624" class="fil38" points="846,1546 1131,1681 1012,1812 "/>
  <polygon id="_60423536" class="fil39" points="846,1546 653,1625 807,1722 "/>
  <polygon id="_60425024" class="fil40" points="653,1625 807,1722 720,1868 "/>
  <polygon id="_60426512" class="fil41" points="434,1616 653,1625 562,1872 "/>
  <polygon id="_60427112" class="fil42" points="268,1987 314,2001 298,2102 "/>
  <polygon id="_60428432" class="fil43" points="327,1092 327,1092 526,1107 431,1269 "/>
  <polygon id="_60429968" class="fil44" points="526,1107 577,1443 431,1269 "/>
  <polygon id="_60431504" class="fil45" points="577,1443 364,1453 431,1269 "/>
  <polygon id="_59961792_0" class="fil46" points="406,3310 611,3232 636,3222 791,3163 532,2975 "/>
  <polygon class="fil0" points="1935,448 2191,529 2151,843 1935,743 "/>
  <polygon id="_59960064" class="fil47" points="2414,804 2646,697 2695,472 2312,357 2265,710 "/>
  <polygon id="_59960352_0" class="fil1" points="2466,826 2334,636 2147,687 2151,865 "/>
  <polygon id="_59961072_1" class="fil48" points="2334,636 2148,729 2160,402 2340,340 "/>
  <polygon id="_59961792_2" class="fil49" points="2341,354 2343,119 2138,285 "/>
  <polygon id="_59962608_3" class="fil50" points="2138,285 1930,184 1916,382 "/>
  <polygon id="_59963448_4" class="fil51" points="2138,285 1916,382 2053,523 "/>
  <polygon id="_59964096_5" class="fil52" points="2199,546 2199,546 2053,523 2138,285 "/>
  <polygon id="_59964864" class="fil53" points="2341,354 2138,285 2199,546 "/>
  <polygon id="_59965824" class="fil54" points="2339,358 2523,376 2334,636 "/>
  <polygon id="_59966016_6" class="fil1" points="2199,546 2151,865 1994,775 "/>
  <polygon id="_59966856_7" class="fil55" points="2053,523 1994,775 1790,665 "/>
  <polygon id="_59967840_8" class="fil56" points="2053,523 1916,382 1790,665 "/>
  <polygon id="_59968800_9" class="fil57" points="1916,382 1790,665 1580,433 "/>
  <polygon id="_59969664" class="fil58" points="1700,110 1700,110 1570,221 1442,174 "/>
  <polygon id="_59970648_10" class="fil59" points="1580,433 1570,221 1407,291 "/>
  <polygon id="_59971608_11" class="fil60" points="1570,221 1442,174 1407,291 "/>
  <polygon id="_59972568_12" class="fil61" points="1397,509 1397,509 1407,291 1580,433 "/>
  <polygon id="_59973528_13" class="fil62" points="1790,665 1580,433 1478,703 "/>
  <polygon id="_60199808_14" class="fil63" points="1580,433 1397,509 1478,703 "/>
  <polygon id="_60200768_15" class="fil64" points="1790,665 1478,703 1624,828 "/>
  <polygon id="_60201728_16" class="fil65" points="1478,703 1397,509 1302,664 "/>
  <polygon id="_60202688_17" class="fil66" points="1397,509 1302,664 1155,577 "/>
  <polygon id="_60203648_18" class="fil67" points="1302,664 1211,867 1192,770 976,732 1167,638 1155,577 1216,613 1233,604 1233,604 1232,622 "/>
  <polygon id="_60204608_19" class="fil68" points="1407,291 1397,509 1151,420 "/>
  <polygon id="_60205616_20" class="fil69" points="1397,509 1155,577 895,561 822,301 "/>
  <polygon id="_60206144" class="fil70" points="1442,174 1407,291 1154,248 "/>
  <polygon id="_60207056_21" class="fil71" points="1151,420 1151,420 1154,248 1407,291 "/>
  <polygon id="_60236672" class="fil72" points="1442,174 1154,248 1163,107 "/>
  <polygon id="_60237344_22" class="fil73" points="1930,184 1930,184 1916,382 1753,288 "/>
  <polygon id="_60238304" class="fil74" points="1930,184 1700,110 1753,288 "/>
  <polygon id="_60239264_23" class="fil75" points="1916,382 1580,433 1753,288 "/>
  <polygon id="_60240176_24" class="fil76" points="1700,110 1570,221 1753,288 "/>
  <polygon id="_60241136_25" class="fil77" points="1580,433 1570,221 1753,288 "/>
  <polygon id="_60241952_26" class="fil78" points="0,646 41,905 246,740 "/>
  <polygon id="_60243632_27" class="fil79" points="246,740 468,642 332,501 "/>
  <polygon id="_60244208_28" class="fil80" points="172,440 332,501 246,740 "/>
  <polygon id="_60244928_29" class="fil81" points="0,646 246,740 172,440 "/>
  <polygon id="_60245720_30" class="fil82" points="332,501 390,249 595,359 "/>
  <polygon id="_60246512_31" class="fil83" points="332,501 468,642 595,359 "/>
  <polygon id="_60247280_32" class="fil84" points="468,642 595,359 804,592 "/>
  <polygon id="_60248768_33" class="fil85" points="804,592 815,804 976,732 "/>
  <polygon id="_60249536_34" class="fil86" points="815,804 942,850 976,732 "/>
  <polygon id="_60250304_35" class="fil87" points="986,515 986,515 976,732 804,592 "/>
  <polygon id="_60251072_36" class="fil88" points="595,359 804,592 907,321 "/>
  <polygon id="_60251840_37" class="fil89" points="804,592 986,515 907,321 "/>
  <polygon id="_60420584_38" class="fil90" points="595,359 907,321 760,197 "/>
  <polygon id="_60421184_39" class="fil91" points="760,197 907,321 867,0 "/>
  <polygon id="_60421904" class="fil92" points="867,0 907,321 1041,36 "/>
  <polygon id="_60422624_40" class="fil93" points="907,321 1041,36 1174,156 "/>
  <polygon id="_60423536_41" class="fil94" points="907,321 986,515 1083,360 "/>
  <polygon id="_60424112" class="fil95" points="907,321 1174,156 1083,360 "/>
  <polygon id="_60425024_42" class="fil96" points="986,515 1083,360 1228,447 "/>
  <polygon id="_60425600" class="fil97" points="1083,360 1174,156 1228,447 "/>
  <polygon id="_60426512_43" class="fil98" points="976,732 986,515 1233,604 "/>
  <polygon id="_60427112_44" class="fil99" points="942,850 976,732 1230,775 "/>
  <polygon id="_60428432_45" class="fil100" points="454,841 454,841 468,642 631,736 "/>
  <polygon id="_60429968_46" class="fil101" points="468,642 804,592 631,736 "/>
  <polygon id="_60430736" class="fil102" points="684,914 815,804 631,736 "/>
  <polygon id="_60431504_47" class="fil103" points="804,592 815,804 631,736 "/>
  <polygon id="_59961792_0_48" class="fil46" points="2672,763 2591,555 2583,533 2523,376 2334,636 "/>
  <polygon id="_59961792_1" class="fil104" points="2882,566 2935,552 2905,532 "/>
  <polygon class="fil105" points="5,1057 72,1079 63,1162 5,1135 "/>
  <polygon id="_59966856_49" class="fil106" points="1590,3122 1459,3093 1516,2987 "/>
  <polygon id="_59961792_50" class="fil107" points="1267,3169 1268,3031 1146,3127 "/>
  <polygon id="_60201728_51" class="fil108" points="1186,1309 1105,1117 1010,1270 "/>
  <polygon id="_60201728_52" class="fil109" points="1515,2996 1607,2954 1530,2911 "/>
  <polygon id="_59961792_1_0" class="fil110" points="2725,325 2796,439 2693,473 "/>
  <polygon id="_60201728_51_0" class="fil111" points="2654,360 2585,171 2492,288 "/>
 </g>
</svg>
