<?xml version="1.0" encoding="UTF-8"?>
<!DOCTYPE svg PUBLIC "-//W3C//DTD SVG 1.1//EN" "http://www.w3.org/Graphics/SVG/1.1/DTD/svg11.dtd">
<!-- Creator: CorelDRAW X7 -->
<svg xmlns="http://www.w3.org/2000/svg" xml:space="preserve" width="1659px" height="1659px" version="1.1" style="shape-rendering:geometricPrecision; text-rendering:geometricPrecision; image-rendering:optimizeQuality; fill-rule:evenodd; clip-rule:evenodd"
viewBox="0 0 165900 165900"
 xmlns:xlink="http://www.w3.org/1999/xlink">
 <defs>
  <style type="text/css">
   <![CDATA[
    .fil1 {fill:none}
    .fil2 {fill:#FEFEFE}
    .fil0 {fill:#434242}
    .fil3 {fill:#9D9E9E}
   ]]>
  </style>
 </defs>
 <g id="Capa_x0020_1">
  <metadata id="CorelCorpID_0Corel-Layer"/>
  <rect class="fil0" x="49933" y="28319" width="66044" height="108816"/>
  <rect class="fil1" width="165900" height="165900"/>
  <path class="fil2" d="M89381 60289c916,0 1711,741 1711,1700 0,948 -795,1700 -1711,1700 -948,0 -1744,-752 -1744,-1700 0,-959 796,-1700 1744,-1700l0 0zm-12862 0c948,0 1700,741 1700,1700 0,948 -752,1700 -1700,1700 -959,0 -1700,-752 -1700,-1700 0,-959 741,-1700 1700,-1700l0 0zm26694 9712l0 0c1864,0 3358,1493 3358,3313l0 13375c0,1820 -1494,3324 -3358,3324l0 0c-1831,0 -3324,-1504 -3324,-3324l0 -13375c0,-1820 1493,-3313 3324,-3313l0 0zm-40559 0l0 0c1864,0 3357,1493 3357,3313l0 13375c0,1820 -1493,3324 -3357,3324l0 0c-1831,0 -3325,-1504 -3325,-3324l0 -13375c0,-1820 1494,-3313 3325,-3313l0 0zm17604 26901l0 7390c0,1864 -1537,3358 -3368,3358l0 0c-1832,0 -3325,-1494 -3325,-3358l0 -7390 -2823 0c-1450,0 -2692,-1253 -2692,-2703l0 -24329 29757 0 0 24329c0,1450 -1199,2703 -2692,2703l-2780 0 0 7390c0,1864 -1493,3358 -3324,3358l0 0c-1864,0 -3358,-1494 -3358,-3358l0 -7390 -5395 0 0 0zm2692 -41148c2245,0 4360,414 6268,1166l2823 -4316c163,-251 457,-338 708,-163 207,163 294,457 120,697l-2692 4153c4480,2082 7554,6028 7630,10584l-29714 0c76,-4556 3150,-8502 7630,-10584l-2692 -4153c-164,-240 -131,-534 120,-697 250,-175 545,-88 708,163l2823 4316c1908,-752 4023,-1166 6268,-1166l0 0 0 0 0 0z"/>
  <path class="fil3" d="M46642 9221l72616 0c2071,0 3761,1690 3761,3761l0 139936c0,2071 -1690,3771 -3761,3771l-72616 0c-2071,0 -3761,-1700 -3761,-3771l0 -139936c0,-2071 1690,-3761 3761,-3761zm6387 23796l59842 0c1700,0 3096,1406 3096,3106l0 87692c0,1700 -1396,3095 -3096,3095l-59842 0c-1700,0 -3096,-1395 -3096,-3095l0 -87692c0,-1711 1396,-3106 3096,-3106zm29921 103594c3008,0 5450,2442 5450,5450 0,3009 -2442,5450 -5450,5450 -3008,0 -5450,-2441 -5450,-5450 0,-3008 2442,-5450 5450,-5450zm-16034 -116489l32068 0c872,0 1602,719 1602,1602l0 0c0,872 -730,1602 -1602,1602l-32068 0c-872,0 -1602,-730 -1602,-1602l0 0c0,-883 730,-1602 1602,-1602z"/>
 </g>
</svg>
