<?xml version="1.0" encoding="UTF-8"?>
<!DOCTYPE svg PUBLIC "-//W3C//DTD SVG 1.1//EN" "http://www.w3.org/Graphics/SVG/1.1/DTD/svg11.dtd">
<!-- Creator: CorelDRAW X7 -->
<svg xmlns="http://www.w3.org/2000/svg" xml:space="preserve" width="1659px" height="1659px" version="1.1" style="shape-rendering:geometricPrecision; text-rendering:geometricPrecision; image-rendering:optimizeQuality; fill-rule:evenodd; clip-rule:evenodd"
viewBox="0 0 165900 165900"
 xmlns:xlink="http://www.w3.org/1999/xlink">
 <defs>
  <style type="text/css">
   <![CDATA[
    .fil1 {fill:none}
    .fil3 {fill:#FEFEFE}
    .fil0 {fill:#434242}
    .fil2 {fill:#9D9E9E}
   ]]>
  </style>
 </defs>
 <g id="Capa_x0020_1">
  <metadata id="CorelCorpID_0Corel-Layer"/>
  <rect class="fil0" x="49929" y="28316" width="66039" height="108813"/>
  <rect class="fil1" width="165900" height="165900"/>
  <path class="fil2" d="M46643 9217l72614 0c2071,0 3766,1694 3766,3765l0 139936c0,2071 -1695,3765 -3766,3765l-72614 0c-2071,0 -3766,-1694 -3766,-3765l0 -139936c0,-2071 1695,-3765 3766,-3765zm6388 23803l59835 0c1707,0 3102,1401 3102,3102l0 87690c0,1701 -1401,3102 -3102,3102l-59835 0c-1698,0 -3102,-1395 -3102,-3102l0 -87690c0,-1704 1398,-3102 3102,-3102zm29917 103591c3012,0 5451,2442 5451,5450 0,3009 -2439,5451 -5451,5451 -3008,0 -5447,-2442 -5447,-5451 0,-3008 2439,-5450 5447,-5450zm-16026 -116493l32056 0c883,0 1604,718 1604,1601l0 0c0,883 -721,1604 -1604,1604l-32056 0c-883,0 -1604,-721 -1604,-1604l0 0c0,-883 721,-1601 1604,-1601z"/>
  <path class="fil3" d="M105585 70620c-1768,-1949 -3537,-3627 -5927,-4690 -2564,-1150 -5750,-1505 -8315,-886 -3627,799 -5840,2300 -7963,2390 -2033,0 -3978,-1327 -6369,-2036 -2654,-883 -5395,-619 -7963,445 -3096,1237 -6014,3627 -7873,6987 -3360,6282 -2387,14068 -177,20523 1949,5664 5045,10882 8317,13714 1592,1504 3183,2300 4865,2300 1063,0 2390,-264 3540,-709 1946,-705 3715,-1678 6369,-1678 1946,0 3009,351 4246,883 1417,621 3008,1417 5131,1504 1859,90 3364,-618 4778,-1768 4336,-3541 8227,-11501 8669,-13978 -4955,-2390 -7609,-6723 -7873,-11059 -178,-4336 1858,-8846 6546,-11942l0 0 -1 0zm-22823 -5840c-355,-2210 264,-5838 2477,-8846 1859,-2568 5041,-4691 9555,-5309 441,3095 -445,6459 -2478,9113 -2213,2919 -5663,4955 -9554,5042l0 0z"/>
 </g>
</svg>
