<?xml version="1.0" encoding="UTF-8"?>
<!DOCTYPE svg PUBLIC "-//W3C//DTD SVG 1.1//EN" "http://www.w3.org/Graphics/SVG/1.1/DTD/svg11.dtd">
<!-- Creator: CorelDRAW X7 -->
<svg xmlns="http://www.w3.org/2000/svg" xml:space="preserve" width="1659px" height="1659px" version="1.1" style="shape-rendering:geometricPrecision; text-rendering:geometricPrecision; image-rendering:optimizeQuality; fill-rule:evenodd; clip-rule:evenodd"
viewBox="0 0 165900 165900"
 xmlns:xlink="http://www.w3.org/1999/xlink">
 <defs>
  <style type="text/css">
   <![CDATA[
    .fil1 {fill:none}
    .fil0 {fill:#434242}
    .fil2 {fill:#9D9E9E}
    .fil3 {fill:#FEFEFE;fill-rule:nonzero}
   ]]>
  </style>
 </defs>
 <g id="Capa_x0020_1">
  <metadata id="CorelCorpID_0Corel-Layer"/>
  <rect class="fil0" x="49929" y="28316" width="66038" height="108815"/>
  <rect class="fil1" width="165900" height="165900"/>
  <path class="fil2" d="M46642 9216l72616 0c2069,0 3768,1695 3768,3768l0 139936c0,2069 -1699,3764 -3768,3764l-72616 0c-2069,0 -3763,-1695 -3763,-3764l0 -139936c0,-2073 1694,-3768 3763,-3768zm6393 23803l59835 0c1703,0 3101,1403 3101,3106l0 87688c0,1699 -1402,3101 -3101,3101l-59835 0c-1704,0 -3106,-1393 -3106,-3101l0 -87688c0,-1708 1398,-3106 3106,-3106zm29917 103593c3009,0 5449,2440 5449,5453 0,3009 -2440,5448 -5449,5448 -3009,0 -5453,-2439 -5453,-5448 0,-3013 2444,-5453 5453,-5453zm-16030 -116494l32061 0c879,0 1601,722 1601,1601l0 0c0,885 -722,1602 -1601,1602l-32061 0c-884,0 -1602,-717 -1602,-1602l0 0c0,-879 718,-1601 1602,-1601z"/>
  <path class="fil3" d="M106912 81869l0 -23224 -26672 3889 0 19335 26672 0zm-26672 21456l26672 3934 0 -23511 -26672 0 0 19577 0 0zm-21252 -19577l0 16438 19372 2861 0 -19299 -19372 0zm19372 -20941l-19372 2828 0 16234 19372 0 0 -19062z"/>
 </g>
</svg>
