<?xml version="1.0" encoding="UTF-8"?>
<!DOCTYPE svg PUBLIC "-//W3C//DTD SVG 1.1//EN" "http://www.w3.org/Graphics/SVG/1.1/DTD/svg11.dtd">
<!-- Creator: CorelDRAW X7 -->
<svg xmlns="http://www.w3.org/2000/svg" xml:space="preserve" width="1659px" height="1659px" version="1.1" style="shape-rendering:geometricPrecision; text-rendering:geometricPrecision; image-rendering:optimizeQuality; fill-rule:evenodd; clip-rule:evenodd"
viewBox="0 0 165900 165900"
 xmlns:xlink="http://www.w3.org/1999/xlink">
 <defs>
  <style type="text/css">
   <![CDATA[
    .fil2 {fill:none}
    .fil1 {fill:#FEFEFE}
    .fil0 {fill:#434242}
    .fil3 {fill:#9D9E9E}
   ]]>
  </style>
 </defs>
 <g id="Capa_x0020_1">
  <metadata id="CorelCorpID_0Corel-Layer"/>
  <rect class="fil0" x="31497" y="16061" width="102906" height="120550"/>
  <path class="fil1" d="M103892 57597c-1769,-1945 -3538,-3626 -5927,-4687 -2565,-1152 -5749,-1504 -8315,-886 -3627,796 -5839,2300 -7962,2388 -2035,0 -3982,-1326 -6370,-2033 -2654,-885 -5396,-621 -7962,442 -3097,1239 -6016,3627 -7874,6989 -3362,6281 -2388,14066 -177,20524 1947,5661 5042,10882 8316,13712 1592,1504 3184,2301 4866,2301 1062,0 2388,-266 3538,-708 1947,-708 3716,-1681 6370,-1681 1947,0 3008,354 4246,885 1417,619 3009,1415 5132,1504 1857,88 3362,-620 4777,-1770 4335,-3538 8227,-11500 8670,-13978 -4954,-2388 -7609,-6723 -7874,-11058 -177,-4335 1857,-8847 6546,-11943l0 -1 0 0zm-22824 -5839c-354,-2211 265,-5837 2477,-8846 1858,-2566 5043,-4689 9554,-5308 443,3097 -442,6458 -2476,9112 -2213,2920 -5663,4954 -9555,5043l0 -1z"/>
  <rect class="fil2" width="165900" height="165900"/>
  <path class="fil3" d="M28210 9217l107267 0c2072,0 3767,1697 3767,3765l0 139934c0,2070 -1698,3767 -3767,3767l-107267 0c-2069,0 -3766,-1695 -3766,-3767l0 -139934c0,-2071 1695,-3765 3766,-3765zm6389 6844l94488 0c1707,0 3103,1415 3103,3104l0 104646c0,1688 -1413,3103 -3103,3103l-94488 0c-1688,0 -3102,-1396 -3102,-3103l0 -104646c0,-1707 1396,-3104 3102,-3104zm48351 120550c3010,0 5450,2440 5450,5450 0,3010 -2440,5450 -5450,5450 -3010,0 -5450,-2440 -5450,-5450 0,-3010 2440,-5450 5450,-5450z"/>
 </g>
</svg>
