<?xml version="1.0" encoding="UTF-8"?>
<!DOCTYPE svg PUBLIC "-//W3C//DTD SVG 1.1//EN" "http://www.w3.org/Graphics/SVG/1.1/DTD/svg11.dtd">
<!-- Creator: CorelDRAW X7 -->
<svg xmlns="http://www.w3.org/2000/svg" xml:space="preserve" width="1659px" height="1659px" version="1.1" style="shape-rendering:geometricPrecision; text-rendering:geometricPrecision; image-rendering:optimizeQuality; fill-rule:evenodd; clip-rule:evenodd"
viewBox="0 0 165900 165900"
 xmlns:xlink="http://www.w3.org/1999/xlink">
 <defs>
  <style type="text/css">
   <![CDATA[
    .fil2 {fill:none}
    .fil1 {fill:#FEFEFE}
    .fil0 {fill:#434242}
    .fil3 {fill:#9D9E9E}
   ]]>
  </style>
 </defs>
 <g id="Capa_x0020_1">
  <metadata id="CorelCorpID_0Corel-Layer"/>
  <rect class="fil0" x="31497" y="16062" width="102906" height="120548"/>
  <path class="fil1" d="M87786 46977c925,0 1725,755 1725,1726 0,967 -800,1725 -1725,1725 -971,0 -1771,-758 -1771,-1725 0,-971 800,-1726 1771,-1726l0 0zm-13058 0c970,0 1729,755 1729,1726 0,967 -759,1725 -1729,1725 -967,0 -1725,-758 -1725,-1725 0,-971 758,-1726 1725,-1726l0 0zm27079 9855l0 0c1896,0 3412,1516 3412,3367l0 13562c0,1854 -1516,3370 -3412,3370l0 0c-1851,0 -3367,-1516 -3367,-3370l0 -13562c0,-1851 1516,-3367 3367,-3367l0 0zm-41146 0l0 0c1896,0 3413,1516 3413,3367l0 13562c0,1854 -1517,3370 -3413,3370l0 0c-1854,0 -3370,-1516 -3370,-3370l0 -13562c0,-1851 1516,-3367 3370,-3367l0 0zm17858 27291l0 7496c0,1895 -1558,3412 -3412,3412l0 0c-1854,0 -3370,-1517 -3370,-3412l0 -7496 -2863 0c-1475,0 -2738,-1263 -2738,-2738l0 -24682 30196 0 0 24682c0,1475 -1221,2738 -2738,2738l-2821 0 0 7496c0,1895 -1516,3412 -3370,3412l0 0c-1892,0 -3409,-1517 -3409,-3412l0 -7496 -5475 0 0 0zm2738 -41737c2275,0 4421,421 6358,1179l2863 -4379c170,-254 466,-338 717,-171 212,171 295,463 128,717l-2737 4212c4546,2105 7663,6108 7746,10738l-30154 0c84,-4633 3200,-8633 7750,-10738l-2738 -4212c-167,-254 -125,-546 126,-717 253,-167 549,-83 716,171l2866 4379c1934,-758 4084,-1179 6359,-1179l0 0 0 0 0 0z"/>
  <rect class="fil2" width="165900" height="165900"/>
  <path class="fil3" d="M28210 9218l107266 0c2073,0 3766,1697 3766,3766l0 139932c0,2069 -1697,3766 -3766,3766l-107266 0c-2069,0 -3766,-1693 -3766,-3766l0 -139932c0,-2073 1694,-3766 3766,-3766zm6391 6844l94484 0c1710,0 3104,1414 3104,3104l0 104644c0,1690 -1414,3103 -3104,3103l-94484 0c-1690,0 -3104,-1397 -3104,-3103l0 -104644c0,-1710 1395,-3104 3104,-3104zm48349 120548c3007,0 5449,2442 5449,5450 0,3010 -2442,5449 -5449,5449 -3011,0 -5449,-2439 -5449,-5449 0,-3008 2438,-5450 5449,-5450z"/>
 </g>
</svg>
