<?xml version="1.0" encoding="UTF-8"?>
<!DOCTYPE svg PUBLIC "-//W3C//DTD SVG 1.1//EN" "http://www.w3.org/Graphics/SVG/1.1/DTD/svg11.dtd">
<!-- Creator: CorelDRAW X7 -->
<svg xmlns="http://www.w3.org/2000/svg" xml:space="preserve" width="1659px" height="1659px" version="1.1" style="shape-rendering:geometricPrecision; text-rendering:geometricPrecision; image-rendering:optimizeQuality; fill-rule:evenodd; clip-rule:evenodd"
viewBox="0 0 165900 165900"
 xmlns:xlink="http://www.w3.org/1999/xlink">
 <defs>
  <style type="text/css">
   <![CDATA[
    .fil1 {fill:none}
    .fil0 {fill:#434242}
    .fil2 {fill:#9D9E9E}
    .fil3 {fill:#FEFEFE;fill-rule:nonzero}
   ]]>
  </style>
 </defs>
 <g id="Capa_x0020_1">
  <metadata id="CorelCorpID_0Corel-Layer"/>
  <rect class="fil0" x="31497" y="16061" width="102907" height="120550"/>
  <rect class="fil1" width="165900" height="165900"/>
  <path class="fil2" d="M28210 9217l107267 0c2072,0 3768,1697 3768,3765l0 139936c0,2069 -1698,3767 -3768,3767l-107267 0c-2070,0 -3765,-1696 -3765,-3767l0 -139936c0,-2071 1694,-3765 3765,-3765zm6390 6844l94488 0c1707,0 3103,1415 3103,3104l0 104647c0,1689 -1414,3103 -3103,3103l-94488 0c-1688,0 -3103,-1396 -3103,-3103l0 -104647c0,-1707 1397,-3104 3103,-3104zm48351 120551c3009,0 5450,2441 5450,5450 0,3010 -2441,5450 -5450,5450 -3010,0 -5450,-2440 -5450,-5450 0,-3009 2440,-5450 5450,-5450z"/>
  <path class="fil3" d="M105808 73019l0 -23225 -26677 3892 0 19333 26677 0zm-26677 21455l26677 3936 0 -23512 -26677 0 0 19576 0 0zm-21251 -19576l0 16440 19372 2859 0 -19299 -19372 0zm19372 -20938l-19372 2828 0 16231 19372 0 0 -19059z"/>
 </g>
</svg>
